<svg width="2767" height="587" viewBox="0 0 2767 587" fill="none" xmlns="http://www.w3.org/2000/svg">
<rect width="2462" height="110" transform="translate(5.66113 187.557) rotate(2.95)" fill="black"/>
<path d="M81.3209 233.111L81.2336 234.805C86.2594 235.107 89.9977 236.143 92.4485 237.914C94.9205 239.687 96.0775 242.107 95.9194 245.175C95.7624 248.221 94.3639 250.488 91.7239 251.976C89.1062 253.443 85.2823 254.068 80.2521 253.852L80.1681 255.482L72.3065 255.077L72.3905 253.447C67.3647 253.145 63.6254 252.13 61.1724 250.401C58.7205 248.652 57.5731 246.253 57.7301 243.207C57.8882 240.139 59.2772 237.85 61.897 236.34C64.5169 234.83 68.3419 234.184 73.3721 234.4L73.4593 232.706L81.3209 233.111ZM65.8793 243.627C65.8156 244.862 66.3319 245.829 67.4281 246.526C68.5244 247.224 70.2751 247.656 72.6804 247.822L73.074 240.184C70.6643 240.103 68.8784 240.353 67.7163 240.934C66.5542 241.515 65.9419 242.412 65.8793 243.627ZM80.5419 248.227C82.9729 248.31 84.7695 248.061 85.9316 247.48C87.0937 246.899 87.7066 245.99 87.7702 244.755C87.8328 243.54 87.316 242.584 86.2198 241.887C85.1235 241.19 83.3621 240.757 80.9355 240.589L80.5419 248.227ZM104.256 234.293L120.107 235.11L128.286 257.961L119.402 257.504L117.966 253.04L104.576 252.35L102.688 256.642L93.836 256.186L104.256 234.293ZM116.229 247.567L112.255 235.154L112.127 235.147L106.898 247.086L116.229 247.567ZM138.878 236.077L138.363 246.08L149.296 236.614L159.107 237.12L146.97 246.94L158.018 259.494L148.783 259.018L138.321 246.879L137.725 258.448L129.864 258.043L131.016 235.672L138.878 236.077ZM168.576 243.279L159.213 242.797L159.504 237.14L186.221 238.517L185.929 244.174L176.438 243.685L175.577 260.398L167.715 259.993L168.576 243.279ZM188.097 238.614L195.959 239.019L195.619 245.602L201.34 245.897C205.111 246.091 207.963 246.911 209.896 248.357C211.852 249.782 212.763 251.794 212.629 254.393C212.497 256.971 211.384 258.879 209.29 260.117C207.22 261.335 204.298 261.857 200.526 261.684L186.944 260.984L188.097 238.614ZM200.181 256.572C201.395 256.634 202.377 256.439 203.127 255.986C203.876 255.534 204.277 254.817 204.327 253.837C204.376 252.879 204.052 252.136 203.352 251.608C202.653 251.081 201.697 250.786 200.482 250.723L195.369 250.46L195.068 256.308L200.181 256.572ZM215.421 240.022L223.282 240.427L222.129 262.797L214.268 262.392L215.421 240.022ZM248.059 264.646C245.375 264.508 242.991 264.129 240.908 263.509C238.827 262.867 237.076 262.019 235.656 260.963C234.259 259.887 233.214 258.616 232.52 257.149C231.849 255.661 231.561 254.002 231.656 252.17C231.752 250.295 232.211 248.652 233.031 247.242C233.874 245.811 235.045 244.633 236.546 243.706C238.068 242.759 239.898 242.084 242.033 241.682C244.17 241.258 246.58 241.115 249.265 241.253C251.949 241.392 254.332 241.781 256.414 242.423C258.497 243.043 260.236 243.901 261.632 244.999C263.029 246.075 264.074 247.368 264.765 248.877C265.457 250.365 265.755 252.047 265.658 253.922C265.564 255.754 265.096 257.375 264.254 258.784C263.414 260.172 262.243 261.329 260.743 262.256C259.244 263.161 257.426 263.826 255.289 264.25C253.154 264.652 250.744 264.785 248.059 264.646ZM239.933 252.596C239.84 254.386 240.525 255.809 241.987 256.867C243.45 257.925 245.576 258.526 248.367 258.67C251.158 258.814 253.335 258.435 254.898 257.533C256.462 256.631 257.289 255.285 257.381 253.495C257.477 251.642 256.794 250.175 255.333 249.096C253.873 247.995 251.748 247.373 248.957 247.229C246.166 247.086 243.988 247.486 242.422 248.431C240.858 249.354 240.028 250.743 239.933 252.596ZM304.601 244.618L303.448 266.988L295.587 266.583L295.987 258.817L282.309 258.112L281.909 265.878L274.047 265.473L275.2 243.103L283.062 243.508L282.615 252.168L296.293 252.873L296.74 244.212L304.601 244.618ZM315.414 245.175L331.265 245.992L339.444 268.843L330.559 268.385L329.123 263.921L315.733 263.231L313.846 267.524L304.993 267.068L315.414 245.175ZM327.387 258.449L323.412 246.036L323.284 246.029L318.055 257.968L327.387 258.449ZM346.858 258.042C346.758 259.981 347.481 261.503 349.026 262.608C350.571 263.713 352.867 264.344 355.914 264.501C357.511 264.583 359.126 264.549 360.757 264.398C362.39 264.226 363.954 263.932 365.449 263.518L365.667 269.233C364.151 269.625 362.556 269.906 360.881 270.076C359.206 270.246 357.549 270.289 355.908 270.204C353.011 270.055 350.457 269.667 348.246 269.04C346.035 268.414 344.188 267.571 342.705 266.512C341.244 265.432 340.156 264.148 339.443 262.659C338.729 261.169 338.42 259.487 338.517 257.612C338.615 255.716 339.095 254.064 339.958 252.656C340.821 251.248 342.035 250.082 343.599 249.159C345.184 248.236 347.109 247.577 349.372 247.181C351.636 246.785 354.216 246.662 357.114 246.811C358.669 246.891 360.271 247.102 361.919 247.443C363.568 247.785 365.157 248.24 366.687 248.81L365.913 254.506C364.575 253.946 363.092 253.496 361.465 253.155C359.86 252.795 358.216 252.571 356.533 252.485C353.486 252.328 351.137 252.73 349.485 253.692C347.835 254.632 346.959 256.082 346.858 258.042Z" fill="#222223"/>
<path d="M423.866 250.764L423.779 252.457C428.805 252.759 432.543 253.796 434.994 255.567C437.466 257.339 438.623 259.759 438.465 262.827C438.308 265.874 436.909 268.141 434.269 269.628C431.652 271.095 427.828 271.721 422.798 271.504L422.714 273.134L414.852 272.729L414.936 271.099C409.91 270.797 406.171 269.782 403.718 268.054C401.266 266.304 400.119 263.906 400.276 260.859C400.434 257.791 401.823 255.502 404.442 253.992C407.062 252.482 410.887 251.836 415.917 252.052L416.005 250.359L423.866 250.764ZM408.425 261.279C408.361 262.515 408.877 263.481 409.974 264.178C411.07 264.876 412.821 265.308 415.226 265.475L415.619 257.837C413.21 257.755 411.424 258.005 410.262 258.586C409.1 259.167 408.487 260.065 408.425 261.279ZM423.087 265.88C425.518 265.962 427.315 265.713 428.477 265.132C429.639 264.551 430.252 263.643 430.316 262.407C430.378 261.193 429.861 260.237 428.765 259.539C427.669 258.842 425.908 258.41 423.481 258.242L423.087 265.88ZM446.802 251.946L462.653 252.762L470.832 275.614L461.947 275.156L460.511 270.692L447.121 270.002L445.234 274.295L436.381 273.838L446.802 251.946ZM458.775 265.219L454.8 252.806L454.672 252.8L449.443 264.739L458.775 265.219ZM481.423 253.73L480.908 263.732L491.842 254.267L501.653 254.772L489.515 264.593L500.564 277.146L491.328 276.67L480.867 264.531L480.271 276.1L472.409 275.695L473.562 253.325L481.423 253.73ZM511.122 260.932L501.758 260.449L502.05 254.793L528.766 256.169L528.475 261.826L518.983 261.337L518.122 278.051L510.261 277.646L511.122 260.932ZM530.642 256.266L538.504 256.671L538.165 263.255L543.885 263.549C547.656 263.744 550.508 264.564 552.442 266.009C554.398 267.434 555.309 269.446 555.175 272.046C555.042 274.624 553.929 276.531 551.836 277.769C549.765 278.987 546.844 279.509 543.072 279.336L529.49 278.636L530.642 256.266ZM542.726 274.224C543.941 274.286 544.923 274.091 545.672 273.639C546.422 273.186 546.822 272.47 546.872 271.49C546.922 270.531 546.597 269.788 545.898 269.26C545.199 268.733 544.242 268.438 543.028 268.376L537.914 268.112L537.613 273.96L542.726 274.224ZM557.966 257.674L565.828 258.079L564.675 280.45L556.813 280.045L557.966 257.674ZM590.605 282.299C587.92 282.16 585.537 281.781 583.454 281.161C581.372 280.52 579.621 279.671 578.202 278.615C576.805 277.539 575.759 276.268 575.066 274.801C574.395 273.314 574.107 271.654 574.201 269.822C574.298 267.947 574.756 266.304 575.576 264.894C576.419 263.464 577.591 262.285 579.091 261.358C580.614 260.411 582.443 259.737 584.578 259.334C586.715 258.91 589.126 258.767 591.81 258.906C594.495 259.044 596.878 259.434 598.959 260.075C601.042 260.695 602.782 261.554 604.178 262.651C605.575 263.727 606.619 265.02 607.31 266.529C608.003 268.018 608.3 269.699 608.204 271.574C608.109 273.406 607.641 275.027 606.8 276.436C605.959 277.824 604.789 278.981 603.288 279.908C601.789 280.814 599.971 281.478 597.835 281.902C595.699 282.305 593.289 282.437 590.605 282.299ZM582.478 270.248C582.386 272.038 583.071 273.462 584.533 274.52C585.995 275.578 588.122 276.179 590.913 276.323C593.704 276.466 595.881 276.087 597.444 275.185C599.007 274.283 599.835 272.937 599.927 271.148C600.022 269.294 599.34 267.828 597.879 266.748C596.419 265.648 594.293 265.026 591.502 264.882C588.711 264.738 586.533 265.138 584.968 266.083C583.403 267.006 582.574 268.395 582.478 270.248ZM647.147 262.27L645.994 284.64L638.132 284.235L638.532 276.469L624.855 275.765L624.454 283.53L616.593 283.125L617.746 260.755L625.607 261.16L625.161 269.82L638.839 270.525L639.285 261.865L647.147 262.27ZM657.959 262.827L673.81 263.644L681.989 286.495L673.105 286.037L671.669 281.574L658.278 280.883L656.391 285.176L647.539 284.72L657.959 262.827ZM669.932 276.101L665.957 263.688L665.83 263.681L660.6 275.62L669.932 276.101ZM689.403 275.694C689.303 277.633 690.026 279.155 691.571 280.26C693.116 281.365 695.412 281.996 698.459 282.153C700.057 282.235 701.671 282.201 703.303 282.05C704.935 281.878 706.499 281.585 707.994 281.17L708.212 286.885C706.697 287.277 705.102 287.558 703.427 287.728C701.752 287.898 700.094 287.941 698.453 287.856C695.556 287.707 693.002 287.319 690.791 286.692C688.581 286.066 686.733 285.223 685.25 284.164C683.789 283.085 682.702 281.8 681.988 280.311C681.274 278.822 680.966 277.139 681.062 275.265C681.16 273.368 681.641 271.716 682.503 270.308C683.366 268.9 684.58 267.734 686.144 266.811C687.73 265.889 689.654 265.229 691.918 264.833C694.181 264.437 696.762 264.314 699.659 264.463C701.214 264.544 702.816 264.754 704.465 265.096C706.113 265.437 707.703 265.893 709.233 266.463L708.459 272.158C707.12 271.598 705.638 271.148 704.01 270.808C702.405 270.447 700.761 270.224 699.078 270.137C696.032 269.98 693.682 270.382 692.031 271.344C690.38 272.284 689.504 273.734 689.403 275.694Z" fill="#222223"/>
<path d="M766.412 268.416L766.325 270.11C771.35 270.411 775.089 271.448 777.539 273.219C780.011 274.991 781.168 277.411 781.01 280.479C780.853 283.526 779.455 285.793 776.815 287.28C774.197 288.748 770.373 289.373 765.343 289.156L765.259 290.786L757.397 290.381L757.481 288.751C752.456 288.45 748.716 287.435 746.263 285.706C743.811 283.956 742.664 281.558 742.821 278.511C742.979 275.443 744.368 273.154 746.988 271.645C749.608 270.135 753.433 269.488 758.463 269.705L758.55 268.011L766.412 268.416ZM750.97 278.931C750.907 280.167 751.423 281.133 752.519 281.831C753.615 282.528 755.366 282.96 757.771 283.127L758.165 275.489C755.755 275.408 753.969 275.657 752.807 276.238C751.645 276.819 751.033 277.717 750.97 278.931ZM765.633 283.532C768.064 283.614 769.86 283.365 771.023 282.784C772.185 282.203 772.798 281.295 772.861 280.059C772.924 278.845 772.407 277.889 771.311 277.192C770.214 276.494 768.453 276.062 766.026 275.894L765.633 283.532ZM789.347 269.598L805.198 270.415L813.377 293.266L804.493 292.808L803.057 288.344L789.667 287.654L787.779 291.947L778.927 291.491L789.347 269.598ZM801.32 282.872L797.346 270.459L797.218 270.452L791.989 282.391L801.32 282.872ZM823.969 271.382L823.454 281.385L834.387 271.919L844.198 272.425L832.061 282.245L843.109 294.798L833.874 294.322L823.412 282.184L822.816 293.752L814.955 293.347L816.107 270.977L823.969 271.382ZM853.667 278.584L844.304 278.102L844.595 272.445L871.312 273.822L871.02 279.478L861.529 278.989L860.668 295.703L852.806 295.298L853.667 278.584ZM873.188 273.918L881.049 274.324L880.71 280.907L886.431 281.202C890.202 281.396 893.054 282.216 894.987 283.661C896.943 285.086 897.854 287.099 897.72 289.698C897.588 292.276 896.475 294.184 894.381 295.422C892.311 296.639 889.389 297.162 885.617 296.989L872.035 296.289L873.188 273.918ZM885.272 291.876C886.486 291.939 887.468 291.744 888.218 291.291C888.967 290.838 889.367 290.122 889.418 289.142C889.467 288.183 889.143 287.44 888.443 286.913C887.744 286.385 886.788 286.09 885.573 286.028L880.46 285.764L880.159 291.613L885.272 291.876ZM900.512 275.327L908.373 275.732L907.22 298.102L899.359 297.697L900.512 275.327ZM933.15 299.951C930.466 299.813 928.082 299.433 925.999 298.813C923.917 298.172 922.167 297.323 920.747 296.268C919.35 295.192 918.305 293.92 917.611 292.453C916.94 290.966 916.652 289.306 916.747 287.474C916.843 285.599 917.302 283.957 918.122 282.546C918.965 281.116 920.136 279.937 921.637 279.011C923.159 278.064 924.988 277.389 927.124 276.986C929.261 276.562 931.671 276.42 934.356 276.558C937.04 276.696 939.423 277.086 941.505 277.727C943.588 278.347 945.327 279.206 946.723 280.303C948.12 281.379 949.165 282.672 949.856 284.182C950.548 285.67 950.846 287.352 950.749 289.226C950.655 291.059 950.187 292.679 949.345 294.089C948.505 295.477 947.334 296.634 945.834 297.56C944.335 298.466 942.517 299.131 940.38 299.554C938.245 299.957 935.835 300.089 933.15 299.951ZM925.024 287.901C924.931 289.69 925.616 291.114 927.078 292.172C928.541 293.23 930.667 293.831 933.458 293.975C936.249 294.119 938.426 293.74 939.989 292.837C941.552 291.935 942.38 290.59 942.472 288.8C942.568 286.946 941.885 285.48 940.424 284.401C938.964 283.3 936.839 282.678 934.048 282.534C931.257 282.39 929.079 282.791 927.513 283.735C925.949 284.659 925.119 286.047 925.024 287.901ZM989.692 279.922L988.539 302.293L980.678 301.887L981.078 294.122L967.4 293.417L967 301.183L959.138 300.777L960.291 278.407L968.153 278.812L967.706 287.473L981.384 288.178L981.831 279.517L989.692 279.922ZM1000.5 280.479L1016.36 281.296L1024.53 304.148L1015.65 303.69L1014.21 299.226L1000.82 298.536L998.936 302.828L990.084 302.372L1000.5 280.479ZM1012.48 293.753L1008.5 281.34L1008.38 281.334L1003.15 293.272L1012.48 293.753ZM1031.95 293.347C1031.85 295.286 1032.57 296.807 1034.12 297.912C1035.66 299.017 1037.96 299.648 1041 299.805C1042.6 299.888 1044.22 299.853 1045.85 299.703C1047.48 299.53 1049.04 299.237 1050.54 298.823L1050.76 304.538C1049.24 304.929 1047.65 305.21 1045.97 305.38C1044.3 305.55 1042.64 305.593 1041 305.509C1038.1 305.359 1035.55 304.971 1033.34 304.345C1031.13 303.718 1029.28 302.875 1027.8 301.816C1026.33 300.737 1025.25 299.453 1024.53 297.963C1023.82 296.474 1023.51 294.792 1023.61 292.917C1023.71 291.021 1024.19 289.369 1025.05 287.961C1025.91 286.552 1027.13 285.387 1028.69 284.463C1030.28 283.541 1032.2 282.882 1034.46 282.486C1036.73 282.09 1039.31 281.966 1042.2 282.116C1043.76 282.196 1045.36 282.407 1047.01 282.748C1048.66 283.089 1050.25 283.545 1051.78 284.115L1051 289.811C1049.67 289.25 1048.18 288.8 1046.56 288.46C1044.95 288.1 1043.31 287.876 1041.62 287.789C1038.58 287.632 1036.23 288.035 1034.58 288.996C1032.93 289.937 1032.05 291.387 1031.95 293.347Z" fill="#222223"/>
<path d="M1108.96 286.068L1108.87 287.762C1113.9 288.064 1117.63 289.1 1120.08 290.871C1122.56 292.644 1123.71 295.064 1123.56 298.132C1123.4 301.178 1122 303.445 1119.36 304.933C1116.74 306.4 1112.92 307.025 1107.89 306.809L1107.8 308.439L1099.94 308.034L1100.03 306.404C1095 306.102 1091.26 305.087 1088.81 303.358C1086.36 301.608 1085.21 299.21 1085.37 296.164C1085.52 293.096 1086.91 290.807 1089.53 289.297C1092.15 287.787 1095.98 287.14 1101.01 287.357L1101.1 285.663L1108.96 286.068ZM1093.52 296.584C1093.45 297.819 1093.97 298.786 1095.06 299.483C1096.16 300.18 1097.91 300.612 1100.32 300.779L1100.71 293.141C1098.3 293.06 1096.51 293.31 1095.35 293.891C1094.19 294.471 1093.58 295.369 1093.52 296.584ZM1108.18 301.184C1110.61 301.267 1112.41 301.018 1113.57 300.437C1114.73 299.856 1115.34 298.947 1115.41 297.712C1115.47 296.497 1114.95 295.541 1113.86 294.844C1112.76 294.147 1111 293.714 1108.57 293.546L1108.18 301.184ZM1131.89 287.25L1147.74 288.067L1155.92 310.918L1147.04 310.46L1145.6 305.997L1132.21 305.307L1130.32 309.599L1121.47 309.143L1131.89 287.25ZM1143.87 300.524L1139.89 288.111L1139.76 288.104L1134.53 300.043L1143.87 300.524ZM1166.51 289.034L1166 299.037L1176.93 289.571L1186.74 290.077L1174.61 299.897L1185.65 312.45L1176.42 311.975L1165.96 299.836L1165.36 311.405L1157.5 311L1158.65 288.629L1166.51 289.034ZM1196.21 296.236L1186.85 295.754L1187.14 290.097L1213.86 291.474L1213.57 297.131L1204.07 296.641L1203.21 313.355L1195.35 312.95L1196.21 296.236ZM1215.73 291.571L1223.59 291.976L1223.26 298.559L1228.98 298.854C1232.75 299.048 1235.6 299.868 1237.53 301.314C1239.49 302.739 1240.4 304.751 1240.27 307.35C1240.13 309.928 1239.02 311.836 1236.93 313.074C1234.86 314.292 1231.93 314.814 1228.16 314.641L1214.58 313.941L1215.73 291.571ZM1227.82 309.528C1229.03 309.591 1230.01 309.396 1230.76 308.943C1231.51 308.491 1231.91 307.774 1231.96 306.794C1232.01 305.836 1231.69 305.092 1230.99 304.565C1230.29 304.038 1229.33 303.743 1228.12 303.68L1223.01 303.417L1222.7 309.265L1227.82 309.528ZM1243.06 292.979L1250.92 293.384L1249.77 315.754L1241.9 315.349L1243.06 292.979ZM1275.7 317.603C1273.01 317.465 1270.63 317.086 1268.54 316.466C1266.46 315.824 1264.71 314.976 1263.29 313.92C1261.9 312.844 1260.85 311.573 1260.16 310.106C1259.49 308.618 1259.2 306.959 1259.29 305.126C1259.39 303.252 1259.85 301.609 1260.67 300.199C1261.51 298.768 1262.68 297.59 1264.18 296.663C1265.7 295.716 1267.53 295.041 1269.67 294.639C1271.81 294.215 1274.22 294.072 1276.9 294.21C1279.59 294.349 1281.97 294.738 1284.05 295.38C1286.13 296 1287.87 296.858 1289.27 297.956C1290.67 299.032 1291.71 300.324 1292.4 301.834C1293.09 303.322 1293.39 305.004 1293.29 306.879C1293.2 308.711 1292.73 310.332 1291.89 311.741C1291.05 313.129 1289.88 314.286 1288.38 315.213C1286.88 316.118 1285.06 316.783 1282.93 317.207C1280.79 317.609 1278.38 317.742 1275.7 317.603ZM1267.57 305.553C1267.48 307.343 1268.16 308.766 1269.62 309.824C1271.09 310.882 1273.21 311.483 1276 311.627C1278.79 311.771 1280.97 311.392 1282.53 310.49C1284.1 309.588 1284.93 308.242 1285.02 306.452C1285.11 304.599 1284.43 303.132 1282.97 302.053C1281.51 300.952 1279.38 300.33 1276.59 300.186C1273.8 300.042 1271.62 300.443 1270.06 301.388C1268.49 302.311 1267.66 303.699 1267.57 305.553ZM1332.24 297.575L1331.08 319.945L1323.22 319.54L1323.62 311.774L1309.95 311.069L1309.55 318.835L1301.68 318.43L1302.84 296.059L1310.7 296.465L1310.25 305.125L1323.93 305.83L1324.38 297.169L1332.24 297.575ZM1343.05 298.132L1358.9 298.949L1367.08 321.8L1358.2 321.342L1356.76 316.878L1343.37 316.188L1341.48 320.481L1332.63 320.024L1343.05 298.132ZM1355.02 311.406L1351.05 298.993L1350.92 298.986L1345.69 310.925L1355.02 311.406ZM1374.49 310.999C1374.39 312.938 1375.12 314.46 1376.66 315.565C1378.21 316.67 1380.5 317.301 1383.55 317.458C1385.15 317.54 1386.76 317.506 1388.39 317.355C1390.03 317.183 1391.59 316.889 1393.09 316.475L1393.3 322.19C1391.79 322.582 1390.19 322.863 1388.52 323.033C1386.84 323.203 1385.18 323.245 1383.54 323.161C1380.65 323.012 1378.09 322.624 1375.88 321.997C1373.67 321.37 1371.82 320.528 1370.34 319.469C1368.88 318.389 1367.79 317.105 1367.08 315.616C1366.37 314.126 1366.06 312.444 1366.15 310.569C1366.25 308.673 1366.73 307.021 1367.59 305.613C1368.46 304.205 1369.67 303.039 1371.24 302.116C1372.82 301.193 1374.75 300.534 1377.01 300.138C1379.27 299.742 1381.85 299.619 1384.75 299.768C1386.31 299.848 1387.91 300.059 1389.56 300.4C1391.2 300.741 1392.79 301.197 1394.32 301.767L1393.55 307.463C1392.21 306.903 1390.73 306.453 1389.1 306.112C1387.5 305.752 1385.85 305.528 1384.17 305.442C1381.12 305.285 1378.77 305.687 1377.12 306.649C1375.47 307.589 1374.6 309.039 1374.49 310.999Z" fill="#222223"/>
<path d="M1451.5 303.721L1451.42 305.414C1456.44 305.716 1460.18 306.753 1462.63 308.524C1465.1 310.296 1466.26 312.716 1466.1 315.784C1465.94 318.831 1464.55 321.098 1461.91 322.585C1459.29 324.052 1455.46 324.678 1450.43 324.461L1450.35 326.091L1442.49 325.686L1442.57 324.056C1437.55 323.754 1433.81 322.739 1431.35 321.011C1428.9 319.261 1427.75 316.863 1427.91 313.816C1428.07 310.748 1429.46 308.459 1432.08 306.949C1434.7 305.439 1438.52 304.793 1443.55 305.009L1443.64 303.316L1451.5 303.721ZM1436.06 314.236C1436 315.472 1436.51 316.438 1437.61 317.135C1438.71 317.833 1440.46 318.265 1442.86 318.431L1443.26 310.794C1440.85 310.712 1439.06 310.962 1437.9 311.543C1436.74 312.124 1436.12 313.021 1436.06 314.236ZM1450.72 318.837C1453.15 318.919 1454.95 318.67 1456.11 318.089C1457.28 317.508 1457.89 316.6 1457.95 315.364C1458.01 314.15 1457.5 313.194 1456.4 312.496C1455.31 311.799 1453.54 311.366 1451.12 311.199L1450.72 318.837ZM1474.44 304.903L1490.29 305.719L1498.47 328.571L1489.58 328.113L1488.15 323.649L1474.76 322.959L1472.87 327.251L1464.02 326.795L1474.44 304.903ZM1486.41 318.176L1482.44 305.763L1482.31 305.757L1477.08 317.695L1486.41 318.176ZM1509.06 306.687L1508.54 316.689L1519.48 307.224L1529.29 307.729L1517.15 317.55L1528.2 330.103L1518.96 329.627L1508.5 317.488L1507.91 329.057L1500.05 328.652L1501.2 306.282L1509.06 306.687ZM1538.76 313.889L1529.39 313.406L1529.69 307.75L1556.4 309.126L1556.11 314.783L1546.62 314.294L1545.76 331.008L1537.9 330.602L1538.76 313.889ZM1558.28 309.223L1566.14 309.628L1565.8 316.211L1571.52 316.506C1575.29 316.701 1578.14 317.52 1580.08 318.966C1582.03 320.391 1582.95 322.403 1582.81 325.003C1582.68 327.58 1581.57 329.488 1579.47 330.726C1577.4 331.944 1574.48 332.466 1570.71 332.293L1557.13 331.593L1558.28 309.223ZM1570.36 327.181C1571.58 327.243 1572.56 327.048 1573.31 326.596C1574.06 326.143 1574.46 325.427 1574.51 324.447C1574.56 323.488 1574.23 322.745 1573.53 322.217C1572.84 321.69 1571.88 321.395 1570.66 321.333L1565.55 321.069L1565.25 326.917L1570.36 327.181ZM1585.6 310.631L1593.46 311.036L1592.31 333.407L1584.45 333.001L1585.6 310.631ZM1618.24 335.256C1615.56 335.117 1613.17 334.738 1611.09 334.118C1609.01 333.477 1607.26 332.628 1605.84 331.572C1604.44 330.496 1603.4 329.225 1602.7 327.758C1602.03 326.271 1601.74 324.611 1601.84 322.779C1601.93 320.904 1602.39 319.261 1603.21 317.851C1604.06 316.421 1605.23 315.242 1606.73 314.315C1608.25 313.368 1610.08 312.694 1612.21 312.291C1614.35 311.867 1616.76 311.724 1619.45 311.863C1622.13 312.001 1624.51 312.391 1626.6 313.032C1628.68 313.652 1630.42 314.511 1631.81 315.608C1633.21 316.684 1634.26 317.977 1634.95 319.486C1635.64 320.975 1635.94 322.656 1635.84 324.531C1635.75 326.363 1635.28 327.984 1634.44 329.393C1633.6 330.781 1632.43 331.938 1630.92 332.865C1629.43 333.77 1627.61 334.435 1625.47 334.859C1623.34 335.262 1620.93 335.394 1618.24 335.256ZM1610.11 323.205C1610.02 324.995 1610.71 326.419 1612.17 327.477C1613.63 328.535 1615.76 329.136 1618.55 329.279C1621.34 329.423 1623.52 329.044 1625.08 328.142C1626.64 327.24 1627.47 325.894 1627.56 324.105C1627.66 322.251 1626.98 320.785 1625.51 319.705C1624.05 318.605 1621.93 317.982 1619.14 317.839C1616.35 317.695 1614.17 318.095 1612.6 319.04C1611.04 319.963 1610.21 321.352 1610.11 323.205ZM1674.78 315.227L1673.63 337.597L1665.77 337.192L1666.17 329.426L1652.49 328.722L1652.09 336.487L1644.23 336.082L1645.38 313.712L1653.24 314.117L1652.8 322.777L1666.48 323.482L1666.92 314.822L1674.78 315.227ZM1685.6 315.784L1701.45 316.601L1709.63 339.452L1700.74 338.994L1699.3 334.53L1685.91 333.84L1684.03 338.133L1675.18 337.677L1685.6 315.784ZM1697.57 329.058L1693.59 316.645L1693.47 316.638L1688.24 328.577L1697.57 329.058ZM1717.04 328.651C1716.94 330.59 1717.66 332.112 1719.21 333.217C1720.75 334.322 1723.05 334.953 1726.1 335.11C1727.69 335.192 1729.31 335.158 1730.94 335.007C1732.57 334.835 1734.14 334.542 1735.63 334.127L1735.85 339.842C1734.33 340.234 1732.74 340.515 1731.06 340.685C1729.39 340.855 1727.73 340.898 1726.09 340.813C1723.19 340.664 1720.64 340.276 1718.43 339.649C1716.22 339.023 1714.37 338.18 1712.89 337.121C1711.43 336.042 1710.34 334.757 1709.62 333.268C1708.91 331.779 1708.6 330.096 1708.7 328.222C1708.8 326.325 1709.28 324.673 1710.14 323.265C1711 321.857 1712.22 320.691 1713.78 319.768C1715.37 318.846 1717.29 318.186 1719.55 317.79C1721.82 317.394 1724.4 317.271 1727.3 317.42C1728.85 317.5 1730.45 317.711 1732.1 318.052C1733.75 318.394 1735.34 318.85 1736.87 319.42L1736.09 325.115C1734.76 324.555 1733.27 324.105 1731.65 323.765C1730.04 323.404 1728.4 323.181 1726.71 323.094C1723.67 322.937 1721.32 323.339 1719.67 324.301C1718.02 325.241 1717.14 326.691 1717.04 328.651Z" fill="#222223"/>
<path d="M1794.05 321.373L1793.96 323.067C1798.99 323.368 1802.73 324.405 1805.18 326.176C1807.65 327.948 1808.8 330.368 1808.65 333.436C1808.49 336.483 1807.09 338.75 1804.45 340.237C1801.83 341.705 1798.01 342.33 1792.98 342.113L1792.9 343.743L1785.03 343.338L1785.12 341.708C1780.09 341.407 1776.35 340.391 1773.9 338.663C1771.45 336.913 1770.3 334.515 1770.46 331.468C1770.62 328.4 1772 326.111 1774.62 324.602C1777.24 323.092 1781.07 322.445 1786.1 322.662L1786.19 320.968L1794.05 321.373ZM1778.61 331.888C1778.54 333.124 1779.06 334.09 1780.16 334.788C1781.25 335.485 1783 335.917 1785.41 336.084L1785.8 328.446C1783.39 328.364 1781.61 328.614 1780.44 329.195C1779.28 329.776 1778.67 330.674 1778.61 331.888ZM1793.27 336.489C1795.7 336.571 1797.5 336.322 1798.66 335.741C1799.82 335.16 1800.43 334.252 1800.5 333.016C1800.56 331.802 1800.04 330.846 1798.95 330.149C1797.85 329.451 1796.09 329.019 1793.66 328.851L1793.27 336.489ZM1816.98 322.555L1832.83 323.372L1841.01 346.223L1832.13 345.765L1830.69 341.301L1817.3 340.611L1815.42 344.904L1806.56 344.448L1816.98 322.555ZM1828.96 335.829L1824.98 323.416L1824.85 323.409L1819.63 335.348L1828.96 335.829ZM1851.61 324.339L1851.09 334.342L1862.02 324.876L1871.83 325.381L1859.7 335.202L1870.75 347.755L1861.51 347.279L1851.05 335.141L1850.45 346.709L1842.59 346.304L1843.74 323.934L1851.61 324.339ZM1881.3 331.541L1871.94 331.058L1872.23 325.402L1898.95 326.779L1898.66 332.435L1889.17 331.946L1888.3 348.66L1880.44 348.255L1881.3 331.541ZM1900.82 326.875L1908.69 327.281L1908.35 333.864L1914.07 334.159C1917.84 334.353 1920.69 335.173 1922.62 336.618C1924.58 338.043 1925.49 340.056 1925.36 342.655C1925.22 345.233 1924.11 347.141 1922.02 348.379C1919.95 349.596 1917.03 350.119 1913.25 349.946L1899.67 349.246L1900.82 326.875ZM1912.91 344.833C1914.12 344.896 1915.1 344.701 1915.85 344.248C1916.6 343.795 1917 343.079 1917.05 342.099C1917.1 341.14 1916.78 340.397 1916.08 339.87C1915.38 339.342 1914.42 339.047 1913.21 338.985L1908.1 338.721L1907.8 344.57L1912.91 344.833ZM1928.15 328.283L1936.01 328.689L1934.86 351.059L1927 350.654L1928.15 328.283ZM1960.79 352.908C1958.1 352.769 1955.72 352.39 1953.64 351.77C1951.55 351.129 1949.8 350.28 1948.38 349.225C1946.99 348.149 1945.94 346.877 1945.25 345.41C1944.58 343.923 1944.29 342.263 1944.38 340.431C1944.48 338.556 1944.94 336.914 1945.76 335.503C1946.6 334.073 1947.77 332.894 1949.27 331.968C1950.8 331.021 1952.62 330.346 1954.76 329.943C1956.9 329.519 1959.31 329.377 1961.99 329.515C1964.68 329.653 1967.06 330.043 1969.14 330.684C1971.22 331.304 1972.96 332.163 1974.36 333.26C1975.76 334.336 1976.8 335.629 1977.49 337.139C1978.18 338.627 1978.48 340.309 1978.39 342.183C1978.29 344.016 1977.82 345.636 1976.98 347.046C1976.14 348.433 1974.97 349.591 1973.47 350.517C1971.97 351.423 1970.15 352.087 1968.02 352.511C1965.88 352.914 1963.47 353.046 1960.79 352.908ZM1952.66 340.858C1952.57 342.647 1953.25 344.071 1954.71 345.129C1956.18 346.187 1958.3 346.788 1961.09 346.932C1963.89 347.076 1966.06 346.696 1967.63 345.794C1969.19 344.892 1970.02 343.546 1970.11 341.757C1970.2 339.903 1969.52 338.437 1968.06 337.358C1966.6 336.257 1964.48 335.635 1961.68 335.491C1958.89 335.347 1956.72 335.748 1955.15 336.692C1953.59 337.616 1952.76 339.004 1952.66 340.858ZM2017.33 332.879L2016.18 355.25L2008.31 354.844L2008.71 347.079L1995.04 346.374L1994.64 354.14L1986.77 353.734L1987.93 331.364L1995.79 331.769L1995.34 340.43L2009.02 341.135L2009.47 332.474L2017.33 332.879ZM2028.14 333.436L2043.99 334.253L2052.17 357.104L2043.29 356.647L2041.85 352.183L2028.46 351.493L2026.57 355.785L2017.72 355.329L2028.14 333.436ZM2040.11 346.71L2036.14 334.297L2036.01 334.291L2030.78 346.229L2040.11 346.71ZM2059.59 346.304C2059.49 348.242 2060.21 349.764 2061.75 350.869C2063.3 351.974 2065.59 352.605 2068.64 352.762C2070.24 352.845 2071.85 352.81 2073.48 352.659C2075.12 352.487 2076.68 352.194 2078.18 351.78L2078.39 357.495C2076.88 357.886 2075.28 358.167 2073.61 358.337C2071.93 358.507 2070.28 358.55 2068.64 358.466C2065.74 358.316 2063.18 357.928 2060.97 357.302C2058.76 356.675 2056.92 355.832 2055.43 354.773C2053.97 353.694 2052.88 352.41 2052.17 350.92C2051.46 349.431 2051.15 347.749 2051.24 345.874C2051.34 343.978 2051.82 342.326 2052.69 340.917C2053.55 339.509 2054.76 338.344 2056.33 337.42C2057.91 336.498 2059.84 335.839 2062.1 335.443C2064.36 335.047 2066.94 334.923 2069.84 335.073C2071.4 335.153 2073 335.363 2074.65 335.705C2076.3 336.046 2077.88 336.502 2079.41 337.072L2078.64 342.768C2077.3 342.207 2075.82 341.757 2074.19 341.417C2072.59 341.057 2070.94 340.833 2069.26 340.746C2066.21 340.589 2063.86 340.992 2062.21 341.953C2060.56 342.893 2059.69 344.344 2059.59 346.304Z" fill="#222223"/>
<path d="M2136.59 339.025L2136.51 340.719C2141.53 341.021 2145.27 342.057 2147.72 343.828C2150.19 345.601 2151.35 348.021 2151.19 351.089C2151.04 354.135 2149.64 356.402 2147 357.89C2144.38 359.357 2140.56 359.982 2135.52 359.766L2135.44 361.396L2127.58 360.99L2127.66 359.361C2122.64 359.059 2118.9 358.044 2116.45 356.315C2113.99 354.565 2112.85 352.167 2113 349.121C2113.16 346.053 2114.55 343.764 2117.17 342.254C2119.79 340.744 2123.61 340.097 2128.64 340.314L2128.73 338.62L2136.59 339.025ZM2121.15 349.54C2121.09 350.776 2121.6 351.743 2122.7 352.44C2123.8 353.137 2125.55 353.569 2127.95 353.736L2128.35 346.098C2125.94 346.017 2124.15 346.267 2122.99 346.847C2121.83 347.428 2121.21 348.326 2121.15 349.54ZM2135.81 354.141C2138.25 354.224 2140.04 353.975 2141.2 353.394C2142.37 352.813 2142.98 351.904 2143.04 350.669C2143.11 349.454 2142.59 348.498 2141.49 347.801C2140.4 347.104 2138.63 346.671 2136.21 346.503L2135.81 354.141ZM2159.53 340.207L2175.38 341.024L2183.56 363.875L2174.67 363.417L2173.24 358.954L2159.85 358.264L2157.96 362.556L2149.11 362.1L2159.53 340.207ZM2171.5 353.481L2167.53 341.068L2167.4 341.061L2162.17 353L2171.5 353.481ZM2194.15 341.991L2193.64 351.994L2204.57 342.528L2214.38 343.034L2202.24 352.854L2213.29 365.407L2204.06 364.931L2193.59 352.793L2193 364.362L2185.14 363.957L2186.29 341.586L2194.15 341.991ZM2223.85 349.193L2214.49 348.711L2214.78 343.054L2241.49 344.431L2241.2 350.088L2231.71 349.598L2230.85 366.312L2222.99 365.907L2223.85 349.193ZM2243.37 344.528L2251.23 344.933L2250.89 351.516L2256.61 351.811C2260.38 352.005 2263.24 352.825 2265.17 354.271C2267.13 355.696 2268.04 357.708 2267.9 360.307C2267.77 362.885 2266.66 364.793 2264.56 366.031C2262.49 367.249 2259.57 367.771 2255.8 367.598L2242.22 366.898L2243.37 344.528ZM2255.45 362.485C2256.67 362.548 2257.65 362.353 2258.4 361.9C2259.15 361.448 2259.55 360.731 2259.6 359.751C2259.65 358.792 2259.32 358.049 2258.63 357.522C2257.93 356.995 2256.97 356.7 2255.76 356.637L2250.64 356.374L2250.34 362.222L2255.45 362.485ZM2270.69 345.936L2278.56 346.341L2277.4 368.711L2269.54 368.306L2270.69 345.936ZM2303.33 370.56C2300.65 370.422 2298.26 370.043 2296.18 369.423C2294.1 368.781 2292.35 367.933 2290.93 366.877C2289.53 365.801 2288.49 364.529 2287.79 363.063C2287.12 361.575 2286.83 359.916 2286.93 358.083C2287.03 356.209 2287.48 354.566 2288.3 353.156C2289.15 351.725 2290.32 350.547 2291.82 349.62C2293.34 348.673 2295.17 347.998 2297.31 347.596C2299.44 347.172 2301.85 347.029 2304.54 347.167C2307.22 347.306 2309.61 347.695 2311.69 348.337C2313.77 348.957 2315.51 349.815 2316.91 350.913C2318.3 351.989 2319.35 353.281 2320.04 354.791C2320.73 356.279 2321.03 357.961 2320.93 359.836C2320.84 361.668 2320.37 363.289 2319.53 364.698C2318.69 366.086 2317.52 367.243 2316.02 368.17C2314.52 369.075 2312.7 369.74 2310.56 370.164C2308.43 370.566 2306.02 370.698 2303.33 370.56ZM2295.21 358.51C2295.11 360.3 2295.8 361.723 2297.26 362.781C2298.72 363.839 2300.85 364.44 2303.64 364.584C2306.43 364.728 2308.61 364.349 2310.17 363.447C2311.73 362.545 2312.56 361.199 2312.65 359.409C2312.75 357.556 2312.07 356.089 2310.61 355.01C2309.15 353.909 2307.02 353.287 2304.23 353.143C2301.44 352.999 2299.26 353.4 2297.7 354.345C2296.13 355.268 2295.3 356.656 2295.21 358.51ZM2359.87 350.532L2358.72 372.902L2350.86 372.497L2351.26 364.731L2337.58 364.026L2337.18 371.792L2329.32 371.387L2330.47 349.016L2338.33 349.422L2337.89 358.082L2351.57 358.787L2352.01 350.126L2359.87 350.532ZM2370.69 351.089L2386.54 351.906L2394.72 374.757L2385.83 374.299L2384.4 369.835L2371.01 369.145L2369.12 373.438L2360.27 372.981L2370.69 351.089ZM2382.66 364.362L2378.68 351.949L2378.56 351.943L2373.33 363.882L2382.66 364.362ZM2402.13 363.956C2402.03 365.895 2402.75 367.417 2404.3 368.522C2405.84 369.627 2408.14 370.258 2411.19 370.415C2412.78 370.497 2414.4 370.463 2416.03 370.312C2417.66 370.14 2419.23 369.846 2420.72 369.432L2420.94 375.147C2419.42 375.539 2417.83 375.82 2416.15 375.99C2414.48 376.16 2412.82 376.202 2411.18 376.118C2408.28 375.969 2405.73 375.581 2403.52 374.954C2401.31 374.327 2399.46 373.485 2397.98 372.425C2396.52 371.346 2395.43 370.062 2394.72 368.573C2394 367.083 2393.69 365.401 2393.79 363.526C2393.89 361.63 2394.37 359.978 2395.23 358.57C2396.09 357.162 2397.31 355.996 2398.87 355.073C2400.46 354.15 2402.38 353.491 2404.65 353.095C2406.91 352.699 2409.49 352.576 2412.39 352.725C2413.94 352.805 2415.54 353.016 2417.19 353.357C2418.84 353.698 2420.43 354.154 2421.96 354.724L2421.19 360.42C2419.85 359.86 2418.36 359.409 2416.74 359.069C2415.13 358.709 2413.49 358.485 2411.81 358.399C2408.76 358.242 2406.41 358.644 2404.76 359.605C2403.11 360.546 2402.23 361.996 2402.13 363.956Z" fill="#222223"/>
<path d="M2479.14 356.678L2479.05 358.371C2484.08 358.673 2487.82 359.709 2490.27 361.481C2492.74 363.253 2493.9 365.673 2493.74 368.741C2493.58 371.787 2492.18 374.055 2489.54 375.542C2486.92 377.009 2483.1 377.635 2478.07 377.418L2477.99 379.048L2470.12 378.643L2470.21 377.013C2465.18 376.711 2461.44 375.696 2458.99 373.968C2456.54 372.218 2455.39 369.819 2455.55 366.773C2455.71 363.705 2457.1 361.416 2459.72 359.906C2462.34 358.396 2466.16 357.75 2471.19 357.966L2471.28 356.272L2479.14 356.678ZM2463.7 367.193C2463.63 368.429 2464.15 369.395 2465.25 370.092C2466.34 370.79 2468.09 371.222 2470.5 371.388L2470.89 363.751C2468.48 363.669 2466.7 363.919 2465.53 364.5C2464.37 365.081 2463.76 365.978 2463.7 367.193ZM2478.36 371.794C2480.79 371.876 2482.59 371.627 2483.75 371.046C2484.91 370.465 2485.52 369.557 2485.59 368.321C2485.65 367.107 2485.13 366.151 2484.04 365.453C2482.94 364.756 2481.18 364.323 2478.75 364.156L2478.36 371.794ZM2502.07 357.86L2517.93 358.676L2526.1 381.528L2517.22 381.07L2515.78 376.606L2502.39 375.916L2500.51 380.208L2491.65 379.752L2502.07 357.86ZM2514.05 371.133L2510.07 358.72L2509.95 358.714L2504.72 370.652L2514.05 371.133ZM2536.7 359.644L2536.18 369.646L2547.11 360.181L2556.93 360.686L2544.79 370.506L2555.84 383.06L2546.6 382.584L2536.14 370.445L2535.54 382.014L2527.68 381.609L2528.83 359.239L2536.7 359.644ZM2566.39 366.846L2557.03 366.363L2557.32 360.707L2584.04 362.083L2583.75 367.74L2574.26 367.251L2573.39 383.965L2565.53 383.559L2566.39 366.846ZM2585.92 362.18L2593.78 362.585L2593.44 369.168L2599.16 369.463C2602.93 369.658 2605.78 370.477 2607.71 371.923C2609.67 373.348 2610.58 375.36 2610.45 377.959C2610.31 380.537 2609.2 382.445 2607.11 383.683C2605.04 384.901 2602.12 385.423 2598.34 385.25L2584.76 384.55L2585.92 362.18ZM2598 380.138C2599.21 380.2 2600.2 380.005 2600.95 379.553C2601.69 379.1 2602.09 378.384 2602.15 377.403C2602.19 376.445 2601.87 375.702 2601.17 375.174C2600.47 374.647 2599.51 374.352 2598.3 374.289L2593.19 374.026L2592.89 379.874L2598 380.138ZM2613.24 363.588L2621.1 363.993L2619.95 386.364L2612.09 385.958L2613.24 363.588ZM2645.88 388.212C2643.19 388.074 2640.81 387.695 2638.73 387.075C2636.64 386.434 2634.89 385.585 2633.47 384.529C2632.08 383.453 2631.03 382.182 2630.34 380.715C2629.67 379.228 2629.38 377.568 2629.47 375.736C2629.57 373.861 2630.03 372.218 2630.85 370.808C2631.69 369.377 2632.86 368.199 2634.36 367.272C2635.89 366.325 2637.72 365.651 2639.85 365.248C2641.99 364.824 2644.4 364.681 2647.08 364.819C2649.77 364.958 2652.15 365.348 2654.23 365.989C2656.32 366.609 2658.05 367.468 2659.45 368.565C2660.85 369.641 2661.89 370.934 2662.58 372.443C2663.28 373.932 2663.57 375.613 2663.48 377.488C2663.38 379.32 2662.91 380.941 2662.07 382.35C2661.23 383.738 2660.06 384.895 2658.56 385.822C2657.06 386.727 2655.24 387.392 2653.11 387.816C2650.97 388.219 2648.56 388.351 2645.88 388.212ZM2637.75 376.162C2637.66 377.952 2638.34 379.376 2639.81 380.434C2641.27 381.492 2643.39 382.093 2646.19 382.236C2648.98 382.38 2651.15 382.001 2652.72 381.099C2654.28 380.197 2655.11 378.851 2655.2 377.061C2655.3 375.208 2654.61 373.741 2653.15 372.662C2651.69 371.562 2649.57 370.939 2646.77 370.796C2643.98 370.652 2641.81 371.052 2640.24 371.997C2638.68 372.92 2637.85 374.309 2637.75 376.162ZM2702.42 368.184L2701.27 390.554L2693.4 390.149L2693.81 382.383L2680.13 381.678L2679.73 389.444L2671.87 389.039L2673.02 366.669L2680.88 367.074L2680.43 375.734L2694.11 376.439L2694.56 367.779L2702.42 368.184ZM2713.23 368.741L2729.08 369.558L2737.26 392.409L2728.38 391.951L2726.94 387.487L2713.55 386.797L2711.66 391.09L2702.81 390.634L2713.23 368.741ZM2725.2 382.015L2721.23 369.602L2721.1 369.595L2715.87 381.534L2725.2 382.015ZM2744.68 381.608C2744.58 383.547 2745.3 385.069 2746.84 386.174C2748.39 387.279 2750.69 387.91 2753.73 388.067C2755.33 388.149 2756.94 388.115 2758.58 387.964C2760.21 387.792 2761.77 387.499 2763.27 387.084L2763.49 392.799C2761.97 393.191 2760.37 393.472 2758.7 393.642C2757.02 393.812 2755.37 393.855 2753.73 393.77C2750.83 393.621 2748.27 393.233 2746.06 392.606C2743.85 391.98 2742.01 391.137 2740.52 390.078C2739.06 388.999 2737.97 387.714 2737.26 386.225C2736.55 384.735 2736.24 383.053 2736.34 381.179C2736.43 379.282 2736.91 377.63 2737.78 376.222C2738.64 374.814 2739.85 373.648 2741.42 372.725C2743 371.803 2744.93 371.143 2747.19 370.747C2749.45 370.351 2752.03 370.228 2754.93 370.377C2756.49 370.457 2758.09 370.668 2759.74 371.009C2761.39 371.351 2762.98 371.806 2764.51 372.377L2763.73 378.072C2762.39 377.512 2760.91 377.062 2759.28 376.722C2757.68 376.361 2756.03 376.138 2754.35 376.051C2751.3 375.894 2748.96 376.296 2747.3 377.258C2745.65 378.198 2744.78 379.648 2744.68 381.608Z" fill="#222223"/>
<rect width="2452" height="110" transform="translate(17.1833 478.572) rotate(-10.66)" fill="white"/>
<path d="M101.438 505.044L101.752 506.71C106.707 505.821 110.585 505.949 113.383 507.093C116.203 508.234 117.897 510.314 118.465 513.333C119.03 516.331 118.204 518.864 115.988 520.93C113.789 522.972 110.22 524.48 105.28 525.453L105.582 527.057L97.8455 528.513L97.5436 526.909C92.588 527.799 88.7147 527.692 85.9239 526.589C83.1291 525.466 81.4496 523.405 80.8853 520.407C80.317 517.388 81.1284 514.836 83.3194 512.752C85.5103 510.668 89.0758 509.14 94.0157 508.167L93.7019 506.5L101.438 505.044ZM88.9044 518.897C89.1333 520.113 89.8625 520.931 91.0921 521.351C92.3216 521.771 94.1249 521.779 96.5018 521.375L95.0871 513.859C92.7259 514.347 91.0489 515.009 90.0562 515.848C89.0634 516.686 88.6795 517.702 88.9044 518.897ZM104.238 519.918C106.62 519.427 108.308 518.762 109.3 517.924C110.293 517.086 110.675 516.058 110.446 514.843C110.221 513.647 109.494 512.84 108.264 512.42C107.035 512 105.221 511.995 102.823 512.402L104.238 519.918ZM124.008 500.795L139.606 497.859L152.932 518.144L144.19 519.79L141.743 515.789L128.567 518.27L127.742 522.886L119.031 524.525L124.008 500.795ZM138.768 510.879L131.984 499.75L131.858 499.774L129.585 512.608L138.768 510.879ZM158.077 494.383L159.93 504.226L168.329 492.453L177.983 490.636L168.498 503.036L182.19 512.637L173.101 514.348L160.078 505.012L162.221 516.396L154.484 517.852L150.341 495.839L158.077 494.383ZM188.636 494.394L179.422 496.128L178.374 490.562L204.665 485.613L205.712 491.18L196.372 492.938L199.468 509.385L191.732 510.841L188.636 494.394ZM206.511 485.266L214.247 483.81L215.466 490.288L221.095 489.229C224.806 488.53 227.771 488.656 229.991 489.606C232.227 490.531 233.586 492.272 234.067 494.83C234.545 497.366 233.912 499.483 232.169 501.178C230.443 502.849 227.726 504.044 224.02 504.764L210.654 507.279L206.511 485.266ZM222.481 499.876C223.676 499.651 224.584 499.23 225.206 498.614C225.828 497.998 226.049 497.207 225.867 496.243C225.69 495.299 225.199 494.654 224.395 494.306C223.592 493.958 222.593 493.896 221.398 494.121L216.366 495.068L217.449 500.823L222.481 499.876ZM233.399 480.205L241.135 478.749L245.278 500.762L237.542 502.218L233.399 480.205ZM270.915 496.458C268.273 496.955 265.867 497.147 263.697 497.035C261.523 496.901 259.622 496.489 257.994 495.796C256.382 495.079 255.067 494.09 254.048 492.827C253.046 491.539 252.375 489.994 252.036 488.191C251.689 486.346 251.748 484.642 252.213 483.078C252.696 481.49 253.557 480.068 254.797 478.815C256.054 477.536 257.673 476.45 259.654 475.556C261.631 474.641 263.94 473.935 266.582 473.438C269.224 472.941 271.631 472.759 273.806 472.892C275.976 473.005 277.869 473.43 279.484 474.168C281.095 474.885 282.414 475.896 283.441 477.2C284.464 478.484 285.149 480.048 285.496 481.893C285.836 483.696 285.762 485.381 285.276 486.949C284.785 488.496 283.92 489.896 282.68 491.15C281.436 492.382 279.825 493.456 277.849 494.371C275.868 495.265 273.556 495.96 270.915 496.458ZM260.181 486.658C260.512 488.419 261.513 489.642 263.183 490.326C264.853 491.01 267.062 491.094 269.808 490.577C272.554 490.06 274.581 489.179 275.888 487.935C277.195 486.69 277.683 485.187 277.351 483.426C277.008 481.602 275.999 480.338 274.325 479.632C272.647 478.906 270.435 478.802 267.689 479.319C264.942 479.836 262.92 480.737 261.621 482.024C260.317 483.289 259.838 484.834 260.181 486.658ZM321.156 463.686L325.3 485.7L317.564 487.156L316.125 479.514L302.666 482.048L304.104 489.689L296.368 491.146L292.224 469.132L299.96 467.676L301.565 476.198L315.024 473.665L313.42 465.143L321.156 463.686ZM331.796 461.684L347.394 458.748L360.721 479.033L351.978 480.678L349.532 476.678L336.355 479.158L335.531 483.774L326.82 485.414L331.796 461.684ZM346.556 471.767L339.773 460.638L339.647 460.662L337.374 473.496L346.556 471.767ZM365.385 466.79C365.744 468.698 366.805 470.007 368.567 470.718C370.329 471.428 372.708 471.501 375.707 470.937C377.279 470.641 378.84 470.228 380.39 469.697C381.936 469.146 383.387 468.493 384.743 467.738L386.3 473.241C384.919 473.978 383.434 474.627 381.847 475.186C380.259 475.746 378.657 476.177 377.043 476.481C374.192 477.018 371.618 477.242 369.322 477.153C367.026 477.064 365.033 476.68 363.342 475.999C361.668 475.294 360.309 474.302 359.265 473.022C358.22 471.743 357.525 470.18 357.178 468.335C356.826 466.469 356.904 464.751 357.412 463.179C357.919 461.607 358.824 460.189 360.127 458.923C361.451 457.654 363.167 456.56 365.273 455.643C367.38 454.725 369.859 453.998 372.71 453.461C374.241 453.173 375.847 453.001 377.53 452.945C379.212 452.889 380.864 452.958 382.486 453.152L383.073 458.87C381.641 458.64 380.094 458.551 378.432 458.604C376.788 458.631 375.137 458.801 373.481 459.112C370.483 459.677 368.294 460.621 366.915 461.944C365.532 463.246 365.022 464.862 365.385 466.79Z" fill="#121215"/>
<path d="M438.519 441.595L438.832 443.262C443.788 442.373 447.665 442.5 450.464 443.645C453.284 444.786 454.978 446.866 455.546 449.885C456.11 452.883 455.284 455.415 453.068 457.482C450.87 459.524 447.3 461.032 442.36 462.005L442.662 463.609L434.926 465.065L434.624 463.461C429.669 464.351 425.795 464.244 423.004 463.141C420.21 462.017 418.53 459.956 417.966 456.958C417.398 453.939 418.209 451.388 420.4 449.304C422.591 447.22 426.156 445.692 431.096 444.718L430.783 443.052L438.519 441.595ZM425.985 455.449C426.214 456.665 426.943 457.483 428.173 457.903C429.402 458.322 431.205 458.33 433.582 457.926L432.168 450.41C429.806 450.898 428.13 451.561 427.137 452.399C426.144 453.237 425.76 454.254 425.985 455.449ZM441.319 456.47C443.701 455.978 445.388 455.313 446.381 454.475C447.374 453.637 447.756 452.61 447.527 451.394C447.302 450.199 446.575 449.392 445.345 448.972C444.115 448.552 442.302 448.546 439.904 448.954L441.319 456.47ZM461.088 437.347L476.686 434.411L490.013 454.696L481.27 456.342L478.824 452.341L465.647 454.821L464.823 459.437L456.112 461.077L461.088 437.347ZM475.848 447.431L469.065 436.302L468.939 436.325L466.666 449.159L475.848 447.431ZM495.158 430.934L497.01 440.777L505.409 429.005L515.064 427.187L505.578 439.588L519.27 449.189L510.182 450.9L497.158 441.564L499.301 452.948L491.565 454.404L487.421 432.39L495.158 430.934ZM525.717 430.946L516.503 432.68L515.455 427.114L541.745 422.165L542.793 427.731L533.453 429.489L536.549 445.937L528.813 447.393L525.717 430.946ZM543.591 421.818L551.327 420.361L552.547 426.84L558.176 425.78C561.887 425.082 564.852 425.207 567.071 426.157C569.308 427.082 570.666 428.824 571.148 431.381C571.625 433.918 570.993 436.034 569.25 437.73C567.523 439.401 564.807 440.596 561.1 441.315L547.735 443.831L543.591 421.818ZM559.561 436.428C560.756 436.203 561.665 435.782 562.287 435.166C562.909 434.549 563.129 433.759 562.948 432.795C562.77 431.851 562.28 431.205 561.476 430.857C560.672 430.509 559.673 430.448 558.478 430.673L553.447 431.62L554.53 437.375L559.561 436.428ZM570.479 416.757L578.215 415.3L582.359 437.314L574.623 438.77L570.479 416.757ZM607.995 433.009C605.354 433.507 602.948 433.699 600.778 433.586C598.603 433.453 596.702 433.04 595.074 432.348C593.463 431.631 592.148 430.641 591.129 429.379C590.127 428.091 589.456 426.546 589.117 424.743C588.769 422.898 588.828 421.194 589.294 419.63C589.776 418.041 590.638 416.62 591.878 415.366C593.135 414.088 594.754 413.001 596.735 412.108C598.712 411.193 601.021 410.487 603.662 409.99C606.304 409.492 608.712 409.31 610.886 409.444C613.056 409.556 614.949 409.982 616.564 410.72C618.175 411.437 619.494 412.447 620.521 413.752C621.544 415.035 622.23 416.6 622.577 418.445C622.916 420.248 622.843 421.933 622.356 423.501C621.866 425.047 621.001 426.448 619.761 427.701C618.517 428.934 616.906 430.008 614.929 430.923C612.948 431.817 610.637 432.512 607.995 433.009ZM597.261 423.21C597.593 424.971 598.594 426.193 600.264 426.878C601.934 427.562 604.142 427.646 606.889 427.129C609.635 426.612 611.662 425.731 612.969 424.486C614.276 423.242 614.763 421.739 614.432 419.978C614.089 418.154 613.08 416.889 611.406 416.184C609.728 415.458 607.516 415.353 604.769 415.87C602.023 416.387 600 417.289 598.701 418.575C597.398 419.841 596.918 421.386 597.261 423.21ZM658.237 400.238L662.38 422.251L654.644 423.708L653.206 416.066L639.746 418.599L641.185 426.241L633.448 427.697L629.305 405.684L637.041 404.228L638.645 412.75L652.105 410.217L650.501 401.694L658.237 400.238ZM668.877 398.235L684.475 395.299L697.801 415.584L689.059 417.23L686.613 413.229L673.436 415.71L672.612 420.326L663.901 421.965L668.877 398.235ZM683.637 408.319L676.853 397.19L676.727 397.213L674.454 410.047L683.637 408.319ZM702.466 403.342C702.825 405.25 703.886 406.559 705.647 407.269C707.409 407.98 709.789 408.053 712.787 407.488C714.359 407.192 715.921 406.779 717.471 406.249C719.017 405.697 720.467 405.044 721.823 404.29L723.38 409.793C721.999 410.53 720.515 411.179 718.927 411.738C717.339 412.297 715.738 412.729 714.124 413.033C711.272 413.57 708.699 413.793 706.403 413.705C704.107 413.616 702.113 413.231 700.422 412.551C698.748 411.846 697.389 410.853 696.345 409.574C695.301 408.294 694.605 406.732 694.258 404.887C693.907 403.021 693.985 401.302 694.492 399.731C695 398.159 695.905 396.74 697.208 395.475C698.532 394.205 700.247 393.112 702.354 392.194C704.461 391.277 706.939 390.55 709.791 390.013C711.321 389.725 712.928 389.553 714.61 389.497C716.293 389.44 717.945 389.509 719.566 389.704L720.154 395.421C718.722 395.192 717.174 395.103 715.513 395.155C713.868 395.183 712.218 395.352 710.561 395.664C707.563 396.228 705.375 397.172 703.996 398.495C702.613 399.798 702.103 401.413 702.466 403.342Z" fill="#121215"/>
<path d="M775.599 378.147L775.913 379.814C780.869 378.924 784.746 379.052 787.545 380.197C790.364 381.338 792.058 383.417 792.626 386.436C793.191 389.434 792.365 391.967 790.149 394.034C787.95 396.076 784.381 397.583 779.441 398.557L779.743 400.16L772.007 401.617L771.705 400.013C766.749 400.902 762.876 400.795 760.085 399.693C757.29 398.569 755.611 396.508 755.046 393.51C754.478 390.491 755.289 387.94 757.48 385.856C759.671 383.772 763.237 382.243 768.177 381.27L767.863 379.603L775.599 378.147ZM763.066 392.001C763.294 393.217 764.024 394.034 765.253 394.454C766.483 394.874 768.286 394.882 770.663 394.478L769.248 386.962C766.887 387.45 765.21 388.113 764.217 388.951C763.225 389.789 762.841 390.806 763.066 392.001ZM778.399 393.022C780.781 392.53 782.469 391.865 783.461 391.027C784.454 390.189 784.836 389.162 784.607 387.946C784.382 386.751 783.655 385.943 782.426 385.524C781.196 385.104 779.382 385.098 776.984 385.506L778.399 393.022ZM798.169 373.899L813.767 370.963L827.093 391.248L818.351 392.893L815.905 388.893L802.728 391.373L801.904 395.989L793.193 397.629L798.169 373.899ZM812.929 383.982L806.145 372.853L806.019 372.877L803.746 385.711L812.929 383.982ZM832.238 367.486L834.091 377.329L842.49 365.556L852.145 363.739L842.659 376.14L856.351 385.741L847.263 387.451L834.239 378.115L836.382 389.499L828.646 390.956L824.502 368.942L832.238 367.486ZM862.797 367.497L853.583 369.232L852.535 363.665L878.826 358.717L879.873 364.283L870.533 366.041L873.629 382.488L865.893 383.944L862.797 367.497ZM880.672 358.369L888.408 356.913L889.627 363.391L895.256 362.332C898.967 361.633 901.932 361.759 904.152 362.709C906.388 363.634 907.747 365.375 908.228 367.933C908.706 370.47 908.073 372.586 906.33 374.282C904.604 375.952 901.888 377.148 898.181 377.867L884.815 380.383L880.672 358.369ZM896.642 372.979C897.837 372.754 898.746 372.334 899.368 371.717C899.99 371.101 900.21 370.311 900.028 369.346C899.851 368.403 899.36 367.757 898.557 367.409C897.753 367.061 896.754 366.999 895.559 367.224L890.527 368.171L891.61 373.926L896.642 372.979ZM907.56 353.308L915.296 351.852L919.439 373.866L911.703 375.322L907.56 353.308ZM945.076 369.561C942.434 370.058 940.028 370.251 937.858 370.138C935.684 370.005 933.783 369.592 932.155 368.9C930.544 368.183 929.228 367.193 928.209 365.93C927.207 364.643 926.536 363.098 926.197 361.295C925.85 359.45 925.909 357.745 926.374 356.181C926.857 354.593 927.718 353.172 928.958 351.918C930.215 350.639 931.834 349.553 933.815 348.659C935.792 347.744 938.101 347.038 940.743 346.541C943.385 346.044 945.793 345.862 947.967 345.996C950.137 346.108 952.03 346.533 953.645 347.271C955.256 347.988 956.575 348.999 957.602 350.304C958.625 351.587 959.31 353.151 959.657 354.996C959.997 356.799 959.923 358.485 959.437 360.052C958.947 361.599 958.081 362.999 956.841 364.253C955.597 365.486 953.987 366.56 952.01 367.474C950.029 368.368 947.718 369.064 945.076 369.561ZM934.342 359.761C934.674 361.522 935.674 362.745 937.344 363.429C939.014 364.114 941.223 364.197 943.969 363.68C946.716 363.163 948.742 362.282 950.049 361.038C951.356 359.793 951.844 358.291 951.513 356.529C951.169 354.705 950.161 353.441 948.487 352.736C946.809 352.01 944.596 351.905 941.85 352.422C939.104 352.939 937.081 353.841 935.782 355.127C934.479 356.393 933.999 357.937 934.342 359.761ZM995.317 336.79L999.461 358.803L991.725 360.259L990.286 352.618L976.827 355.151L978.265 362.793L970.529 364.249L966.385 342.236L974.122 340.779L975.726 349.302L989.185 346.768L987.581 338.246L995.317 336.79ZM1005.96 334.787L1021.56 331.851L1034.88 352.136L1026.14 353.781L1023.69 349.781L1010.52 352.261L1009.69 356.877L1000.98 358.517L1005.96 334.787ZM1020.72 344.871L1013.93 333.741L1013.81 333.765L1011.53 346.599L1020.72 344.871ZM1039.55 339.894C1039.91 341.802 1040.97 343.111 1042.73 343.821C1044.49 344.531 1046.87 344.604 1049.87 344.04C1051.44 343.744 1053 343.331 1054.55 342.8C1056.1 342.249 1057.55 341.596 1058.9 340.841L1060.46 346.344C1059.08 347.082 1057.6 347.73 1056.01 348.29C1054.42 348.849 1052.82 349.281 1051.2 349.585C1048.35 350.121 1045.78 350.345 1043.48 350.256C1041.19 350.168 1039.19 349.783 1037.5 349.103C1035.83 348.398 1034.47 347.405 1033.43 346.126C1032.38 344.846 1031.69 343.284 1031.34 341.439C1030.99 339.573 1031.07 337.854 1031.57 336.282C1032.08 334.711 1032.99 333.292 1034.29 332.027C1035.61 330.757 1037.33 329.664 1039.43 328.746C1041.54 327.829 1044.02 327.101 1046.87 326.565C1048.4 326.277 1050.01 326.105 1051.69 326.048C1053.37 325.992 1055.03 326.061 1056.65 326.255L1057.23 331.973C1055.8 331.743 1054.25 331.655 1052.59 331.707C1050.95 331.734 1049.3 331.904 1047.64 332.216C1044.64 332.78 1042.46 333.724 1041.08 335.047C1039.69 336.349 1039.18 337.965 1039.55 339.894Z" fill="#121215"/>
<path d="M1112.68 314.699L1112.99 316.365C1117.95 315.476 1121.83 315.604 1124.63 316.748C1127.44 317.889 1129.14 319.969 1129.71 322.988C1130.27 325.986 1129.45 328.519 1127.23 330.585C1125.03 332.627 1121.46 334.135 1116.52 335.108L1116.82 336.712L1109.09 338.168L1108.79 336.564C1103.83 337.454 1099.96 337.347 1097.17 336.244C1094.37 335.121 1092.69 333.06 1092.13 330.062C1091.56 327.043 1092.37 324.491 1094.56 322.407C1096.75 320.323 1100.32 318.795 1105.26 317.822L1104.94 316.155L1112.68 314.699ZM1100.15 328.552C1100.38 329.768 1101.1 330.586 1102.33 331.006C1103.56 331.426 1105.37 331.434 1107.74 331.03L1106.33 323.514C1103.97 324.001 1102.29 324.664 1101.3 325.503C1100.31 326.341 1099.92 327.357 1100.15 328.552ZM1115.48 329.573C1117.86 329.082 1119.55 328.417 1120.54 327.579C1121.53 326.741 1121.92 325.713 1121.69 324.497C1121.46 323.302 1120.74 322.495 1119.51 322.075C1118.28 321.655 1116.46 321.65 1114.06 322.057L1115.48 329.573ZM1135.25 310.45L1150.85 307.514L1164.17 327.799L1155.43 329.445L1152.99 325.444L1139.81 327.925L1138.98 332.541L1130.27 334.18L1135.25 310.45ZM1150.01 320.534L1143.23 309.405L1143.1 309.429L1140.83 322.263L1150.01 320.534ZM1169.32 304.038L1171.17 313.881L1179.57 302.108L1189.23 300.291L1179.74 312.691L1193.43 322.292L1184.34 324.003L1171.32 314.667L1173.46 326.051L1165.73 327.507L1161.58 305.494L1169.32 304.038ZM1199.88 304.049L1190.66 305.783L1189.62 300.217L1215.91 295.268L1216.95 300.835L1207.61 302.593L1210.71 319.04L1202.97 320.496L1199.88 304.049ZM1217.75 294.921L1225.49 293.465L1226.71 299.943L1232.34 298.883C1236.05 298.185 1239.01 298.311 1241.23 299.261C1243.47 300.185 1244.83 301.927 1245.31 304.485C1245.79 307.021 1245.15 309.138 1243.41 310.833C1241.68 312.504 1238.97 313.699 1235.26 314.419L1221.9 316.934L1217.75 294.921ZM1233.72 309.531C1234.92 309.306 1235.83 308.885 1236.45 308.269C1237.07 307.653 1237.29 306.862 1237.11 305.898C1236.93 304.954 1236.44 304.309 1235.64 303.961C1234.83 303.613 1233.83 303.551 1232.64 303.776L1227.61 304.723L1228.69 310.478L1233.72 309.531ZM1244.64 289.86L1252.38 288.404L1256.52 310.417L1248.78 311.873L1244.64 289.86ZM1282.16 306.113C1279.51 306.61 1277.11 306.802 1274.94 306.69C1272.76 306.556 1270.86 306.143 1269.24 305.451C1267.62 304.734 1266.31 303.745 1265.29 302.482C1264.29 301.194 1263.62 299.649 1263.28 297.846C1262.93 296.001 1262.99 294.297 1263.45 292.733C1263.94 291.144 1264.8 289.723 1266.04 288.47C1267.3 287.191 1268.91 286.105 1270.9 285.211C1272.87 284.296 1275.18 283.59 1277.82 283.093C1280.47 282.596 1282.87 282.414 1285.05 282.547C1287.22 282.66 1289.11 283.085 1290.73 283.823C1292.34 284.54 1293.66 285.551 1294.68 286.855C1295.71 288.139 1296.39 289.703 1296.74 291.548C1297.08 293.351 1297 295.036 1296.52 296.604C1296.03 298.151 1295.16 299.551 1293.92 300.805C1292.68 302.037 1291.07 303.111 1289.09 304.026C1287.11 304.92 1284.8 305.615 1282.16 306.113ZM1271.42 296.313C1271.75 298.074 1272.75 299.297 1274.42 299.981C1276.09 300.665 1278.3 300.749 1281.05 300.232C1283.8 299.715 1285.82 298.834 1287.13 297.59C1288.44 296.345 1288.92 294.842 1288.59 293.081C1288.25 291.257 1287.24 289.993 1285.57 289.287C1283.89 288.561 1281.68 288.457 1278.93 288.974C1276.18 289.491 1274.16 290.392 1272.86 291.679C1271.56 292.944 1271.08 294.489 1271.42 296.313ZM1332.4 273.341L1336.54 295.355L1328.81 296.811L1327.37 289.169L1313.91 291.703L1315.35 299.344L1307.61 300.801L1303.47 278.787L1311.2 277.331L1312.81 285.853L1326.27 283.32L1324.66 274.798L1332.4 273.341ZM1343.04 271.339L1358.64 268.403L1371.96 288.688L1363.22 290.333L1360.77 286.333L1347.6 288.813L1346.77 293.429L1338.06 295.069L1343.04 271.339ZM1357.8 281.422L1351.01 270.293L1350.89 270.317L1348.62 283.151L1357.8 281.422ZM1376.63 276.445C1376.99 278.353 1378.05 279.662 1379.81 280.373C1381.57 281.083 1383.95 281.156 1386.95 280.592C1388.52 280.296 1390.08 279.883 1391.63 279.352C1393.18 278.801 1394.63 278.148 1395.98 277.393L1397.54 282.896C1396.16 283.633 1394.68 284.282 1393.09 284.841C1391.5 285.401 1389.9 285.832 1388.28 286.136C1385.43 286.673 1382.86 286.897 1380.56 286.808C1378.27 286.719 1376.27 286.335 1374.58 285.654C1372.91 284.949 1371.55 283.957 1370.51 282.677C1369.46 281.398 1368.77 279.835 1368.42 277.99C1368.07 276.124 1368.15 274.406 1368.65 272.834C1369.16 271.262 1370.07 269.844 1371.37 268.578C1372.69 267.309 1374.41 266.215 1376.52 265.298C1378.62 264.38 1381.1 263.653 1383.95 263.116C1385.48 262.828 1387.09 262.656 1388.77 262.6C1390.45 262.544 1392.11 262.613 1393.73 262.807L1394.32 268.525C1392.88 268.295 1391.34 268.206 1389.67 268.259C1388.03 268.286 1386.38 268.456 1384.72 268.767C1381.72 269.332 1379.54 270.276 1378.16 271.599C1376.77 272.901 1376.26 274.517 1376.63 276.445Z" fill="#121215"/>
<path d="M1449.76 251.25L1450.07 252.917C1455.03 252.028 1458.91 252.155 1461.71 253.3C1464.53 254.441 1466.22 256.521 1466.79 259.54C1467.35 262.538 1466.53 265.07 1464.31 267.137C1462.11 269.179 1458.54 270.687 1453.6 271.66L1453.9 273.264L1446.17 274.72L1445.87 273.116C1440.91 274.006 1437.04 273.899 1434.25 272.796C1431.45 271.672 1429.77 269.611 1429.21 266.613C1428.64 263.594 1429.45 261.043 1431.64 258.959C1433.83 256.875 1437.4 255.347 1442.34 254.373L1442.02 252.707L1449.76 251.25ZM1437.23 265.104C1437.46 266.32 1438.18 267.138 1439.41 267.558C1440.64 267.977 1442.45 267.985 1444.82 267.581L1443.41 260.065C1441.05 260.553 1439.37 261.216 1438.38 262.054C1437.39 262.892 1437 263.909 1437.23 265.104ZM1452.56 266.125C1454.94 265.633 1456.63 264.968 1457.62 264.13C1458.62 263.292 1459 262.265 1458.77 261.049C1458.54 259.854 1457.82 259.047 1456.59 258.627C1455.36 258.207 1453.54 258.201 1451.15 258.609L1452.56 266.125ZM1472.33 247.002L1487.93 244.066L1501.25 264.351L1492.51 265.997L1490.07 261.996L1476.89 264.476L1476.06 269.092L1467.35 270.732L1472.33 247.002ZM1487.09 257.086L1480.31 245.957L1480.18 245.98L1477.91 258.814L1487.09 257.086ZM1506.4 240.589L1508.25 250.432L1516.65 238.66L1526.31 236.842L1516.82 249.243L1530.51 258.844L1521.42 260.555L1508.4 251.219L1510.54 262.603L1502.81 264.059L1498.66 242.045L1506.4 240.589ZM1536.96 240.601L1527.74 242.335L1526.7 236.769L1552.99 231.82L1554.03 237.386L1544.69 239.144L1547.79 255.592L1540.05 257.048L1536.96 240.601ZM1554.83 231.473L1562.57 230.016L1563.79 236.495L1569.42 235.435C1573.13 234.737 1576.09 234.862 1578.31 235.812C1580.55 236.737 1581.91 238.479 1582.39 241.036C1582.87 243.573 1582.23 245.689 1580.49 247.385C1578.77 249.056 1576.05 250.251 1572.34 250.97L1558.98 253.486L1554.83 231.473ZM1570.8 246.083C1572 245.858 1572.91 245.437 1573.53 244.821C1574.15 244.204 1574.37 243.414 1574.19 242.45C1574.01 241.506 1573.52 240.86 1572.72 240.512C1571.91 240.164 1570.91 240.103 1569.72 240.328L1564.69 241.275L1565.77 247.03L1570.8 246.083ZM1581.72 226.412L1589.46 224.955L1593.6 246.969L1585.86 248.425L1581.72 226.412ZM1619.24 242.664C1616.6 243.162 1614.19 243.354 1612.02 243.241C1609.85 243.108 1607.94 242.695 1606.32 242.003C1604.7 241.286 1603.39 240.296 1602.37 239.034C1601.37 237.746 1600.7 236.201 1600.36 234.398C1600.01 232.553 1600.07 230.849 1600.54 229.285C1601.02 227.696 1601.88 226.275 1603.12 225.021C1604.38 223.743 1606 222.656 1607.98 221.763C1609.95 220.848 1612.26 220.142 1614.9 219.645C1617.55 219.147 1619.95 218.965 1622.13 219.099C1624.3 219.211 1626.19 219.637 1627.81 220.375C1629.42 221.092 1630.74 222.102 1631.76 223.407C1632.79 224.69 1633.47 226.255 1633.82 228.1C1634.16 229.903 1634.08 231.588 1633.6 233.156C1633.11 234.702 1632.24 236.103 1631 237.356C1629.76 238.589 1628.15 239.663 1626.17 240.578C1624.19 241.472 1621.88 242.167 1619.24 242.664ZM1608.5 232.865C1608.83 234.626 1609.84 235.848 1611.51 236.533C1613.18 237.217 1615.38 237.301 1618.13 236.784C1620.88 236.267 1622.9 235.386 1624.21 234.141C1625.52 232.897 1626.01 231.394 1625.67 229.633C1625.33 227.809 1624.32 226.544 1622.65 225.839C1620.97 225.113 1618.76 225.008 1616.01 225.525C1613.26 226.042 1611.24 226.944 1609.94 228.23C1608.64 229.496 1608.16 231.041 1608.5 232.865ZM1669.48 209.893L1673.62 231.906L1665.89 233.363L1664.45 225.721L1650.99 228.254L1652.43 235.896L1644.69 237.352L1640.55 215.339L1648.28 213.883L1649.89 222.405L1663.35 219.872L1661.74 211.349L1669.48 209.893ZM1680.12 207.89L1695.72 204.954L1709.04 225.239L1700.3 226.885L1697.85 222.884L1684.68 225.364L1683.85 229.981L1675.14 231.62L1680.12 207.89ZM1694.88 217.974L1688.09 206.845L1687.97 206.868L1685.7 219.702L1694.88 217.974ZM1713.71 212.997C1714.07 214.905 1715.13 216.214 1716.89 216.924C1718.65 217.635 1721.03 217.708 1724.03 217.143C1725.6 216.847 1727.16 216.434 1728.71 215.904C1730.26 215.352 1731.71 214.699 1733.07 213.945L1734.62 219.448C1733.24 220.185 1731.76 220.834 1730.17 221.393C1728.58 221.952 1726.98 222.384 1725.37 222.688C1722.51 223.225 1719.94 223.448 1717.64 223.36C1715.35 223.271 1713.35 222.886 1711.66 222.206C1709.99 221.501 1708.63 220.508 1707.59 219.229C1706.54 217.949 1705.85 216.387 1705.5 214.542C1705.15 212.676 1705.23 210.957 1705.73 209.386C1706.24 207.814 1707.15 206.395 1708.45 205.13C1709.77 203.86 1711.49 202.767 1713.6 201.849C1715.7 200.932 1718.18 200.205 1721.03 199.668C1722.56 199.38 1724.17 199.208 1725.85 199.152C1727.53 199.095 1729.19 199.164 1730.81 199.358L1731.4 205.076C1729.96 204.847 1728.42 204.758 1726.75 204.81C1725.11 204.838 1723.46 205.007 1721.8 205.319C1718.81 205.883 1716.62 206.827 1715.24 208.15C1713.85 209.453 1713.34 211.068 1713.71 212.997Z" fill="#121215"/>
<path d="M1786.84 187.802L1787.15 189.469C1792.11 188.579 1795.99 188.707 1798.79 189.852C1801.61 190.993 1803.3 193.072 1803.87 196.091C1804.43 199.089 1803.61 201.622 1801.39 203.689C1799.19 205.731 1795.62 207.238 1790.68 208.212L1790.98 209.815L1783.25 211.272L1782.95 209.668C1777.99 210.557 1774.12 210.45 1771.33 209.348C1768.53 208.224 1766.85 206.163 1766.29 203.165C1765.72 200.146 1766.53 197.595 1768.72 195.511C1770.91 193.427 1774.48 191.898 1779.42 190.925L1779.1 189.258L1786.84 187.802ZM1774.31 201.656C1774.54 202.872 1775.27 203.689 1776.49 204.109C1777.72 204.529 1779.53 204.537 1781.9 204.133L1780.49 196.617C1778.13 197.105 1776.45 197.768 1775.46 198.606C1774.47 199.444 1774.08 200.461 1774.31 201.656ZM1789.64 202.677C1792.02 202.185 1793.71 201.52 1794.7 200.682C1795.7 199.844 1796.08 198.817 1795.85 197.601C1795.62 196.406 1794.9 195.598 1793.67 195.179C1792.44 194.759 1790.62 194.753 1788.23 195.161L1789.64 202.677ZM1809.41 183.554L1825.01 180.618L1838.33 200.903L1829.59 202.548L1827.15 198.548L1813.97 201.028L1813.15 205.644L1804.43 207.284L1809.41 183.554ZM1824.17 193.637L1817.39 182.508L1817.26 182.532L1814.99 195.366L1824.17 193.637ZM1843.48 177.141L1845.33 186.984L1853.73 175.211L1863.39 173.394L1853.9 185.795L1867.59 195.396L1858.5 197.106L1845.48 187.77L1847.62 199.154L1839.89 200.611L1835.74 178.597L1843.48 177.141ZM1874.04 177.152L1864.82 178.887L1863.78 173.32L1890.07 168.372L1891.12 173.938L1881.78 175.696L1884.87 192.143L1877.13 193.599L1874.04 177.152ZM1891.91 168.024L1899.65 166.568L1900.87 173.046L1906.5 171.987C1910.21 171.288 1913.17 171.414 1915.39 172.364C1917.63 173.289 1918.99 175.03 1919.47 177.588C1919.95 180.125 1919.31 182.241 1917.57 183.937C1915.85 185.607 1913.13 186.803 1909.42 187.522L1896.06 190.038L1891.91 168.024ZM1907.88 182.634C1909.08 182.409 1909.99 181.989 1910.61 181.372C1911.23 180.756 1911.45 179.966 1911.27 179.001C1911.09 178.058 1910.6 177.412 1909.8 177.064C1908.99 176.716 1908 176.654 1906.8 176.879L1901.77 177.826L1902.85 183.581L1907.88 182.634ZM1918.8 162.963L1926.54 161.507L1930.68 183.521L1922.94 184.977L1918.8 162.963ZM1956.32 179.216C1953.68 179.713 1951.27 179.906 1949.1 179.793C1946.93 179.66 1945.02 179.247 1943.4 178.555C1941.79 177.838 1940.47 176.848 1939.45 175.585C1938.45 174.298 1937.78 172.753 1937.44 170.95C1937.09 169.105 1937.15 167.4 1937.62 165.836C1938.1 164.248 1938.96 162.827 1940.2 161.573C1941.46 160.294 1943.08 159.208 1945.06 158.314C1947.03 157.399 1949.34 156.693 1951.98 156.196C1954.63 155.699 1957.03 155.517 1959.21 155.651C1961.38 155.763 1963.27 156.188 1964.89 156.926C1966.5 157.643 1967.82 158.654 1968.84 159.959C1969.87 161.242 1970.55 162.806 1970.9 164.651C1971.24 166.454 1971.17 168.14 1970.68 169.707C1970.19 171.254 1969.32 172.654 1968.08 173.908C1966.84 175.141 1965.23 176.215 1963.25 177.129C1961.27 178.023 1958.96 178.719 1956.32 179.216ZM1945.58 169.416C1945.92 171.177 1946.92 172.4 1948.59 173.084C1950.26 173.769 1952.46 173.852 1955.21 173.335C1957.96 172.818 1959.98 171.937 1961.29 170.693C1962.6 169.448 1963.09 167.945 1962.75 166.184C1962.41 164.36 1961.4 163.096 1959.73 162.391C1958.05 161.665 1955.84 161.56 1953.09 162.077C1950.35 162.594 1948.32 163.496 1947.02 164.782C1945.72 166.048 1945.24 167.592 1945.58 169.416ZM2006.56 146.445L2010.7 168.458L2002.97 169.914L2001.53 162.273L1988.07 164.806L1989.51 172.448L1981.77 173.904L1977.63 151.891L1985.36 150.434L1986.97 158.957L2000.43 156.423L1998.82 147.901L2006.56 146.445ZM2017.2 144.442L2032.8 141.506L2046.12 161.791L2037.38 163.436L2034.93 159.436L2021.76 161.916L2020.93 166.532L2012.22 168.172L2017.2 144.442ZM2031.96 154.526L2025.18 143.396L2025.05 143.42L2022.78 156.254L2031.96 154.526ZM2050.79 149.549C2051.15 151.457 2052.21 152.766 2053.97 153.476C2055.73 154.186 2058.11 154.259 2061.11 153.695C2062.68 153.399 2064.24 152.986 2065.79 152.455C2067.34 151.904 2068.79 151.251 2070.15 150.496L2071.7 155.999C2070.32 156.737 2068.84 157.385 2067.25 157.945C2065.66 158.504 2064.06 158.936 2062.45 159.24C2059.59 159.776 2057.02 160 2054.73 159.911C2052.43 159.823 2050.44 159.438 2048.74 158.758C2047.07 158.053 2045.71 157.06 2044.67 155.781C2043.62 154.501 2042.93 152.939 2042.58 151.094C2042.23 149.228 2042.31 147.509 2042.81 145.937C2043.32 144.366 2044.23 142.947 2045.53 141.682C2046.85 140.412 2048.57 139.319 2050.68 138.401C2052.78 137.484 2055.26 136.756 2058.11 136.22C2059.64 135.932 2061.25 135.76 2062.93 135.703C2064.62 135.647 2066.27 135.716 2067.89 135.91L2068.48 141.628C2067.04 141.398 2065.5 141.31 2063.84 141.362C2062.19 141.389 2060.54 141.559 2058.88 141.871C2055.89 142.435 2053.7 143.379 2052.32 144.702C2050.94 146.004 2050.43 147.62 2050.79 149.549Z" fill="#121215"/>
<path d="M2123.92 124.354L2124.24 126.02C2129.19 125.131 2133.07 125.259 2135.87 126.403C2138.69 127.544 2140.38 129.624 2140.95 132.643C2141.51 135.641 2140.69 138.174 2138.47 140.24C2136.27 142.282 2132.7 143.79 2127.76 144.763L2128.07 146.367L2120.33 147.823L2120.03 146.219C2115.07 147.109 2111.2 147.002 2108.41 145.899C2105.61 144.776 2103.93 142.715 2103.37 139.717C2102.8 136.698 2103.61 134.146 2105.8 132.062C2107.99 129.978 2111.56 128.45 2116.5 127.477L2116.19 125.81L2123.92 124.354ZM2111.39 138.207C2111.62 139.423 2112.35 140.241 2113.58 140.661C2114.81 141.081 2116.61 141.089 2118.99 140.685L2117.57 133.169C2115.21 133.656 2113.53 134.319 2112.54 135.158C2111.55 135.996 2111.16 137.012 2111.39 138.207ZM2126.72 139.228C2129.1 138.737 2130.79 138.072 2131.78 137.234C2132.78 136.396 2133.16 135.368 2132.93 134.152C2132.7 132.957 2131.98 132.15 2130.75 131.73C2129.52 131.31 2127.7 131.305 2125.31 131.712L2126.72 139.228ZM2146.49 120.105L2162.09 117.169L2175.42 137.454L2166.67 139.1L2164.23 135.099L2151.05 137.58L2150.23 142.196L2141.51 143.835L2146.49 120.105ZM2161.25 130.189L2154.47 119.06L2154.34 119.084L2152.07 131.918L2161.25 130.189ZM2180.56 113.693L2182.41 123.536L2190.81 111.763L2200.47 109.946L2190.98 122.346L2204.67 131.947L2195.58 133.658L2182.56 124.322L2184.7 135.706L2176.97 137.162L2172.82 115.149L2180.56 113.693ZM2211.12 113.704L2201.91 115.438L2200.86 109.872L2227.15 104.923L2228.2 110.49L2218.86 112.248L2221.95 128.695L2214.22 130.151L2211.12 113.704ZM2228.99 104.576L2236.73 103.12L2237.95 109.598L2243.58 108.538C2247.29 107.84 2250.25 107.966 2252.47 108.916C2254.71 109.84 2256.07 111.582 2256.55 114.14C2257.03 116.676 2256.4 118.793 2254.65 120.488C2252.93 122.159 2250.21 123.354 2246.5 124.074L2233.14 126.589L2228.99 104.576ZM2244.96 119.186C2246.16 118.961 2247.07 118.54 2247.69 117.924C2248.31 117.308 2248.53 116.517 2248.35 115.553C2248.17 114.609 2247.68 113.964 2246.88 113.616C2246.08 113.268 2245.08 113.206 2243.88 113.431L2238.85 114.378L2239.93 120.133L2244.96 119.186ZM2255.88 99.5149L2263.62 98.0587L2267.76 120.072L2260.03 121.528L2255.88 99.5149ZM2293.4 115.768C2290.76 116.265 2288.35 116.457 2286.18 116.345C2284.01 116.211 2282.11 115.798 2280.48 115.106C2278.87 114.389 2277.55 113.4 2276.53 112.137C2275.53 110.849 2274.86 109.304 2274.52 107.501C2274.17 105.656 2274.23 103.952 2274.7 102.388C2275.18 100.799 2276.04 99.3783 2277.28 98.1246C2278.54 96.846 2280.16 95.7597 2282.14 94.8659C2284.11 93.9511 2286.42 93.2451 2289.07 92.7478C2291.71 92.2506 2294.11 92.0687 2296.29 92.2022C2298.46 92.3147 2300.35 92.7399 2301.97 93.4779C2303.58 94.1949 2304.9 95.2057 2305.92 96.5102C2306.95 97.7938 2307.63 99.358 2307.98 101.203C2308.32 103.006 2308.25 104.691 2307.76 106.259C2307.27 107.806 2306.4 109.206 2305.16 110.46C2303.92 111.692 2302.31 112.766 2300.33 113.681C2298.35 114.575 2296.04 115.27 2293.4 115.768ZM2282.66 105.968C2283 107.729 2284 108.952 2285.67 109.636C2287.34 110.32 2289.54 110.404 2292.29 109.887C2295.04 109.37 2297.06 108.489 2298.37 107.245C2299.68 106 2300.17 104.497 2299.83 102.736C2299.49 100.912 2298.48 99.6475 2296.81 98.9424C2295.13 98.2162 2292.92 98.1116 2290.17 98.6286C2287.43 99.1455 2285.4 100.047 2284.1 101.334C2282.8 102.599 2282.32 104.144 2282.66 105.968ZM2343.64 82.9964L2347.78 105.01L2340.05 106.466L2338.61 98.8242L2325.15 101.358L2326.59 108.999L2318.85 110.456L2314.71 88.4422L2322.44 86.986L2324.05 95.5084L2337.51 92.9749L2335.9 84.4525L2343.64 82.9964ZM2354.28 80.9936L2369.88 78.0576L2383.2 98.3426L2374.46 99.9881L2372.02 95.9876L2358.84 98.4678L2358.01 103.084L2349.3 104.724L2354.28 80.9936ZM2369.04 91.0773L2362.26 79.9481L2362.13 79.9718L2359.86 92.8058L2369.04 91.0773ZM2387.87 86.1004C2388.23 88.0082 2389.29 89.3173 2391.05 90.0277C2392.81 90.738 2395.19 90.8111 2398.19 90.2468C2399.76 89.9508 2401.32 89.5375 2402.87 89.007C2404.42 88.4555 2405.87 87.8025 2407.23 87.048L2408.78 92.551C2407.4 93.2885 2405.92 93.9369 2404.33 94.4963C2402.74 95.0557 2401.14 95.4873 2399.53 95.7912C2396.68 96.3279 2394.1 96.5518 2391.81 96.463C2389.51 96.3742 2387.52 95.9897 2385.82 95.3094C2384.15 94.6042 2382.79 93.6118 2381.75 92.3322C2380.7 91.0526 2380.01 89.4903 2379.66 87.6454C2379.31 85.7795 2379.39 84.0607 2379.9 82.489C2380.4 80.9174 2381.31 79.4988 2382.61 78.2333C2383.93 76.9638 2385.65 75.8703 2387.76 74.9527C2389.86 74.0352 2392.34 73.3081 2395.19 72.7714C2396.72 72.4833 2398.33 72.3112 2400.01 72.255C2401.7 72.1987 2403.35 72.2677 2404.97 72.4618L2405.56 78.1798C2404.12 77.9501 2402.58 77.8614 2400.92 77.9137C2399.27 77.9411 2397.62 78.1106 2395.96 78.4224C2392.97 78.9867 2390.78 79.9305 2389.4 81.2538C2388.02 82.5561 2387.51 84.1716 2387.87 86.1004Z" fill="#121215"/>
<path d="M2461 60.9054L2461.32 62.5721C2466.27 61.6827 2470.15 61.8104 2472.95 62.9551C2475.77 64.0958 2477.46 66.1757 2478.03 69.1947C2478.59 72.1927 2477.77 74.7252 2475.55 76.7921C2473.35 78.8341 2469.78 80.3417 2464.84 81.3149L2465.15 82.9188L2457.41 84.3749L2457.11 82.7711C2452.15 83.6605 2448.28 83.5538 2445.49 82.451C2442.69 81.3273 2441.01 79.2664 2440.45 76.2684C2439.88 73.2494 2440.69 70.6979 2442.88 68.614C2445.07 66.5301 2448.64 65.0015 2453.58 64.0283L2453.27 62.3615L2461 60.9054ZM2448.47 74.7589C2448.7 75.9749 2449.43 76.7928 2450.66 77.2126C2451.89 77.6324 2453.69 77.6403 2456.07 77.2363L2454.65 69.7203C2452.29 70.2082 2450.61 70.8711 2449.62 71.7092C2448.63 72.5473 2448.24 73.5639 2448.47 74.7589ZM2463.8 75.7801C2466.18 75.2883 2467.87 74.6234 2468.86 73.7853C2469.86 72.9472 2470.24 71.9201 2470.01 70.7041C2469.79 69.5091 2469.06 68.7017 2467.83 68.2819C2466.6 67.8621 2464.79 67.8562 2462.39 68.2641L2463.8 75.7801ZM2483.57 56.6571L2499.17 53.7211L2512.5 74.006L2503.75 75.6516L2501.31 71.6511L2488.13 74.1313L2487.31 78.7475L2478.6 80.3871L2483.57 56.6571ZM2498.33 66.7408L2491.55 55.6116L2491.42 55.6353L2489.15 68.4693L2498.33 66.7408ZM2517.64 50.2443L2519.49 60.0874L2527.89 48.3146L2537.55 46.4973L2528.06 58.898L2541.75 68.4989L2532.67 70.2096L2519.64 60.8736L2521.78 72.2577L2514.05 73.7139L2509.9 51.7004L2517.64 50.2443ZM2548.2 50.2556L2538.99 51.99L2537.94 46.4237L2564.23 41.4751L2565.28 47.0414L2555.94 48.7994L2559.03 65.2466L2551.3 66.7028L2548.2 50.2556ZM2566.07 41.1276L2573.81 39.6715L2575.03 46.1497L2580.66 45.0902C2584.37 44.3917 2587.34 44.5173 2589.55 45.4672C2591.79 46.3922 2593.15 48.1335 2593.63 50.6913C2594.11 53.228 2593.48 55.3443 2591.73 57.04C2590.01 58.7108 2587.29 59.9059 2583.58 60.6253L2570.22 63.1411L2566.07 41.1276ZM2582.04 55.7376C2583.24 55.5127 2584.15 55.092 2584.77 54.4757C2585.39 53.8593 2585.61 53.0689 2585.43 52.1045C2585.25 51.1611 2584.76 50.5153 2583.96 50.1673C2583.16 49.8193 2582.16 49.7577 2580.96 49.9827L2575.93 50.9298L2577.01 56.6847L2582.04 55.7376ZM2592.96 36.0666L2600.7 34.6104L2604.84 56.6238L2597.11 58.08L2592.96 36.0666ZM2630.48 52.3193C2627.84 52.8165 2625.43 53.0089 2623.26 52.8964C2621.09 52.7629 2619.19 52.3502 2617.56 51.658C2615.95 50.941 2614.63 49.9512 2613.61 48.6886C2612.61 47.4011 2611.94 45.8558 2611.6 44.0528C2611.25 42.2079 2611.31 40.5036 2611.78 38.9398C2612.26 37.3512 2613.12 35.93 2614.36 34.6763C2615.62 33.3976 2617.24 32.3114 2619.22 31.4176C2621.2 30.5028 2623.5 29.7967 2626.15 29.2995C2628.79 28.8023 2631.2 28.6204 2633.37 28.7538C2635.54 28.8663 2637.43 29.2916 2639.05 30.0295C2640.66 30.7466 2641.98 31.7573 2643 33.0619C2644.03 34.3454 2644.71 35.9097 2645.06 37.7546C2645.4 39.5576 2645.33 41.243 2644.84 42.8107C2644.35 44.3574 2643.48 45.7576 2642.24 47.0113C2641 48.2441 2639.39 49.3179 2637.41 50.2327C2635.43 51.1265 2633.12 51.822 2630.48 52.3193ZM2619.74 42.5197C2620.08 44.2808 2621.08 45.5034 2622.75 46.1877C2624.42 46.8719 2626.63 46.9555 2629.37 46.4385C2632.12 45.9216 2634.15 45.0408 2635.45 43.7962C2636.76 42.5516 2637.25 41.0488 2636.92 39.2877C2636.57 37.4638 2635.56 36.1992 2633.89 35.494C2632.21 34.7679 2630 34.6633 2627.25 35.1802C2624.51 35.6972 2622.48 36.5989 2621.18 37.8854C2619.88 39.151 2619.4 40.6958 2619.74 42.5197ZM2680.72 19.548L2684.86 41.5615L2677.13 43.0176L2675.69 35.3758L2662.23 37.9093L2663.67 45.5511L2655.93 47.0073L2651.79 24.9939L2659.52 23.5377L2661.13 32.06L2674.59 29.5266L2672.98 21.0042L2680.72 19.548ZM2691.36 17.5453L2706.96 14.6093L2720.28 34.8942L2711.54 36.5398L2709.1 32.5393L2695.92 35.0195L2695.1 39.6356L2686.38 41.2753L2691.36 17.5453ZM2706.12 27.629L2699.34 16.4998L2699.21 16.5234L2696.94 29.3574L2706.12 27.629ZM2724.95 22.6521C2725.31 24.5599 2726.37 25.869 2728.13 26.5794C2729.89 27.2897 2732.27 27.3627 2735.27 26.7984C2736.84 26.5025 2738.4 26.0892 2739.95 25.5587C2741.5 25.0072 2742.95 24.3542 2744.31 23.5997L2745.86 29.1027C2744.48 29.8401 2743 30.4886 2741.41 31.048C2739.82 31.6074 2738.22 32.039 2736.61 32.3428C2733.76 32.8795 2731.18 33.1035 2728.89 33.0147C2726.59 32.9259 2724.6 32.5413 2722.91 31.8611C2721.23 31.1559 2719.87 30.1635 2718.83 28.8839C2717.78 27.6042 2717.09 26.042 2716.74 24.197C2716.39 22.3311 2716.47 20.6124 2716.98 19.0407C2717.48 17.4691 2718.39 16.0505 2719.69 14.7849C2721.02 13.5154 2722.73 12.4219 2724.84 11.5044C2726.94 10.5869 2729.42 9.85978 2732.27 9.32309C2733.8 9.03501 2735.41 8.86286 2737.09 8.80664C2738.78 8.75041 2740.43 8.81936 2742.05 9.01348L2742.64 14.7314C2741.2 14.5018 2739.66 14.4131 2738 14.4654C2736.35 14.4927 2734.7 14.6623 2733.04 14.9741C2730.05 15.5384 2727.86 16.4822 2726.48 17.8054C2725.1 19.1077 2724.59 20.7233 2724.95 22.6521Z" fill="#121215"/>
</svg>
